<svg width="90" height="47" viewBox="0 0 90 47" fill="none" xmlns="http://www.w3.org/2000/svg">
<path fill-rule="evenodd" clip-rule="evenodd" d="M89.9301 16.966L90 16.9009V16.7253C89.9585 16.6937 89.9158 16.663 89.8731 16.6323C89.7764 16.5627 89.6792 16.4927 89.5932 16.4115C86.0508 13.054 82.5094 9.69548 78.9683 6.33727C77.1509 4.61367 75.3335 2.89016 73.5162 1.16691C73.3697 1.02783 73.2192 0.893735 73.0641 0.755512C72.9815 0.681987 72.8977 0.607295 72.8125 0.530061L69.5272 3.60822C66.0059 6.90756 62.5118 10.1814 59.0054 13.4661L58.8242 13.2962C54.2436 9.00435 49.7323 4.77744 45.196 0.52772L42.0884 3.43943C38.5074 6.79459 34.9555 10.1226 31.3867 13.4661C29.3294 11.5386 27.2855 9.62392 25.2455 7.71299C22.6839 5.31343 20.1286 2.91972 17.5609 0.513672C15.1815 2.77167 12.8117 5.02004 10.4451 7.26543C7.09391 10.4449 3.74902 13.6185 0.39209 16.8049C1.82761 18.3196 3.23543 19.8084 4.67626 21.3321C4.85683 21.523 5.03792 21.7145 5.21965 21.9067L5.63052 21.517C9.63349 17.7206 13.5994 13.9594 17.5936 10.1741C22.2201 14.508 26.7929 18.7927 31.389 23.1008C34.4815 20.2035 37.5448 17.3333 40.6082 14.4631C42.137 13.0307 43.6659 11.5982 45.1984 10.1624C47.2569 12.0911 49.3021 14.0072 51.3424 15.919C53.8994 18.3147 56.4489 20.7034 59.0078 23.1008C63.639 18.7599 68.207 14.4799 72.8031 10.1741C74.6815 11.9559 76.5456 13.7232 78.3812 15.4637C80.6053 17.5725 82.7878 19.6417 84.9036 21.6491C86.6142 20.056 88.2725 18.5106 89.9301 16.966ZM86.0856 43.4171C87.4091 42.2079 88.7052 41.0237 90 39.8395V39.6662C89.9395 39.6182 89.8777 39.5721 89.816 39.526C89.6941 39.435 89.5725 39.3442 89.4623 39.2401C84.2212 34.2713 78.9801 29.3002 73.739 24.3291L73.7032 24.2952C73.4924 24.0945 73.2791 23.8963 73.0604 23.6932C72.9832 23.6214 72.9053 23.549 72.8265 23.4757C70.2908 25.8508 67.7807 28.203 65.2785 30.5478C63.1854 32.5093 61.0979 34.4656 59.0054 36.4258C57.0355 34.5798 55.079 32.7469 53.1289 30.9201C50.4785 28.4371 47.84 25.9654 45.196 23.4874L45.0699 23.6056C40.4704 27.9152 35.9412 32.159 31.3867 36.4258C26.7368 32.0685 22.1664 27.7861 17.5609 23.471C11.8076 28.9311 6.11736 34.3302 0.39209 39.7622C1.81878 41.2695 3.21638 42.7477 4.64261 44.2562L5.21731 44.864C7.93024 42.2924 10.6222 39.7398 13.3134 37.1878C14.7386 35.8364 16.1635 34.4852 17.5913 33.1315C19.8835 35.2799 22.162 37.4146 24.4361 39.5452C26.7542 41.717 29.0677 43.8846 31.3867 46.0581C34.1223 43.4962 36.8319 40.9571 39.5357 38.4234C41.4231 36.6548 43.3076 34.8889 45.196 33.1198L48.2775 36.0069C51.8673 39.3704 55.4279 42.7065 59.0054 46.0581C62.065 43.1929 65.0921 40.3572 68.1135 37.5268C69.677 36.0622 71.239 34.5989 72.8031 33.1338C75.1539 35.3638 77.4801 37.5698 79.7444 39.7172C81.4861 41.369 83.1912 42.986 84.8428 44.5526C85.2602 44.1712 85.6742 43.7929 86.0856 43.4171Z" fill="white"/>
</svg>
