<svg width="179" height="163" viewBox="0 0 179 163" fill="none" xmlns="http://www.w3.org/2000/svg">
<path d="M109.619 10.5787C112.51 10.5787 114.853 8.23523 114.853 5.34449C114.853 2.45375 112.51 0.110352 109.619 0.110352C106.728 0.110352 104.385 2.45375 104.385 5.34449C104.385 8.23523 106.728 10.5787 109.619 10.5787Z" fill="white"/>
<path d="M123.227 75.2047C126.118 75.2047 128.461 72.8613 128.461 69.9705C128.461 67.0798 126.118 64.7363 123.227 64.7363C120.337 64.7363 117.993 67.0798 117.993 69.9705C117.993 72.8613 120.337 75.2047 123.227 75.2047Z" fill="white"/>
<path d="M20.8552 157.076C23.746 157.076 26.0894 154.732 26.0894 151.842C26.0894 148.951 23.746 146.607 20.8552 146.607C17.9645 146.607 15.6211 148.951 15.6211 151.842C15.6211 154.732 17.9645 157.076 20.8552 157.076Z" fill="white"/>
<path d="M79.3395 92.6663C84.401 92.6663 88.5042 88.5631 88.5042 83.5016C88.5042 78.4401 84.401 74.3369 79.3395 74.3369C74.2779 74.3369 70.1748 78.4401 70.1748 83.5016C70.1748 88.5631 74.2779 92.6663 79.3395 92.6663Z" fill="white"/>
<path d="M170.276 74.5937C174.869 74.5937 178.592 70.8707 178.592 66.2783C178.592 61.6858 174.869 57.9629 170.276 57.9629C165.684 57.9629 161.961 61.6858 161.961 66.2783C161.961 70.8707 165.684 74.5937 170.276 74.5937Z" fill="white"/>
<path d="M87.6554 113.346C89.4989 113.346 90.9933 111.851 90.9933 110.008C90.9933 108.164 89.4989 106.67 87.6554 106.67C85.8119 106.67 84.3174 108.164 84.3174 110.008C84.3174 111.851 85.8119 113.346 87.6554 113.346Z" fill="white"/>
<path d="M83.4484 131.003C85.2919 131.003 86.7864 129.509 86.7864 127.665C86.7864 125.822 85.2919 124.327 83.4484 124.327C81.6048 124.327 80.1104 125.822 80.1104 127.665C80.1104 129.509 81.6048 131.003 83.4484 131.003Z" fill="white"/>
<path d="M59.9239 162.092C61.7675 162.092 63.262 160.598 63.262 158.754C63.262 156.91 61.7675 155.416 59.9239 155.416C58.0804 155.416 56.5859 156.91 56.5859 158.754C56.5859 160.598 58.0804 162.092 59.9239 162.092Z" fill="white"/>
<path d="M3.94833 122.431C5.79186 122.431 7.28634 120.936 7.28634 119.093C7.28634 117.249 5.79186 115.755 3.94833 115.755C2.1048 115.755 0.610352 117.249 0.610352 119.093C0.610352 120.936 2.1048 122.431 3.94833 122.431Z" fill="white"/>
<path d="M12.2833 92.6858C14.1269 92.6858 15.6213 91.1913 15.6213 89.3478C15.6213 87.5042 14.1269 86.0098 12.2833 86.0098C10.4398 86.0098 8.94531 87.5042 8.94531 89.3478C8.94531 91.1913 10.4398 92.6858 12.2833 92.6858Z" fill="white"/>
<path d="M40.8644 86.9572C42.7079 86.9572 44.2024 85.4627 44.2024 83.6192C44.2024 81.7757 42.7079 80.2812 40.8644 80.2812C39.0208 80.2812 37.5264 81.7757 37.5264 83.6192C37.5264 85.4627 39.0208 86.9572 40.8644 86.9572Z" fill="white"/>
<path d="M48.7657 66.2785C50.6093 66.2785 52.1038 64.7841 52.1038 62.9405C52.1038 61.097 50.6093 59.6025 48.7657 59.6025C46.9222 59.6025 45.4277 61.097 45.4277 62.9405C45.4277 64.7841 46.9222 66.2785 48.7657 66.2785Z" fill="white"/>
<path d="M81.3751 40.9963C83.2186 40.9963 84.7131 39.5019 84.7131 37.6583C84.7131 35.8148 83.2186 34.3203 81.3751 34.3203C79.5316 34.3203 78.0371 35.8148 78.0371 37.6583C78.0371 39.5019 79.5316 40.9963 81.3751 40.9963Z" fill="white"/>
<path d="M83.4492 94.0479L85.7206 105.642" stroke="white" stroke-miterlimit="10" stroke-linecap="round"/>
<path d="M86.787 115.755L84.6934 123.3" stroke="white" stroke-miterlimit="10" stroke-linecap="round"/>
<path d="M81.3741 132.366L63.2422 153.895" stroke="white" stroke-miterlimit="10" stroke-linecap="round"/>
<path d="M54.2942 158.756L27.2148 154.055" stroke="white" stroke-miterlimit="10" stroke-linecap="round"/>
<path d="M17.8146 145.481L5.37109 124.327" stroke="white" stroke-miterlimit="10" stroke-linecap="round"/>
<path d="M5.37109 114.056L10.5855 94.0479" stroke="white" stroke-miterlimit="10" stroke-linecap="round"/>
<path d="M17.4785 87.3331L36.1239 86.0098" stroke="white" stroke-miterlimit="10" stroke-linecap="round"/>
<path d="M43.1934 79.077L46.8869 68.4902" stroke="white" stroke-miterlimit="10" stroke-linecap="round"/>
<path d="M53.2686 66.2783L70.1758 77.0627" stroke="white" stroke-miterlimit="10" stroke-linecap="round"/>
<path d="M80.1299 44.1172V71.6706" stroke="white" stroke-miterlimit="10" stroke-linecap="round"/>
<path d="M91.9414 81.111L115.307 73.7832" stroke="white" stroke-miterlimit="10" stroke-linecap="round"/>
<path d="M83.4492 33.3514L104.366 10.5977" stroke="white" stroke-miterlimit="10" stroke-linecap="round"/>
<path d="M130.773 67.661L159.69 67.3252" stroke="white" stroke-miterlimit="10" stroke-linecap="round"/>
</svg>
