<svg width="400" height="232" viewBox="0 0 400 232" fill="none" xmlns="http://www.w3.org/2000/svg">
<path d="M295.772 82.5588C307.171 82.5588 316.412 73.3181 316.412 61.9191C316.412 50.52 307.171 41.2793 295.772 41.2793C284.373 41.2793 275.132 50.52 275.132 61.9191C275.132 73.3181 284.373 82.5588 295.772 82.5588Z" fill="white"/>
<path d="M12.9918 25.9836C20.167 25.9836 25.9836 20.167 25.9836 12.9918C25.9836 5.81662 20.167 0 12.9918 0C5.81662 0 0 5.81662 0 12.9918C0 20.167 5.81662 25.9836 12.9918 25.9836Z" fill="white"/>
<path d="M367.005 136.387C374.18 136.387 379.997 130.57 379.997 123.395C379.997 116.22 374.18 110.403 367.005 110.403C359.83 110.403 354.013 116.22 354.013 123.395C354.013 130.57 359.83 136.387 367.005 136.387Z" fill="white"/>
<path d="M387.008 231.987C394.183 231.987 400 226.17 400 218.995C400 211.82 394.183 206.003 387.008 206.003C379.833 206.003 374.016 211.82 374.016 218.995C374.016 226.17 379.833 231.987 387.008 231.987Z" fill="white"/>
<path d="M32.259 14.9995L270.131 56.9164" stroke="white" stroke-miterlimit="10" stroke-linecap="round"/>
<path d="M320.825 82.5586L350.829 110.356" stroke="white" stroke-miterlimit="10" stroke-linecap="round"/>
<path d="M374.016 141.389L384.018 202.72" stroke="white" stroke-miterlimit="10" stroke-linecap="round"/>
</svg>
