<svg width="72" height="65" viewBox="0 0 72 65" fill="none" xmlns="http://www.w3.org/2000/svg">
<path d="M33.1743 64.9927C33.0823 58.1779 32.5923 51.3869 31.783 44.6111C30.9513 37.6285 29.8004 30.6967 27.8271 23.8938C26.556 19.5106 25.0014 15.2189 22.4648 11.2748C21.4134 9.64025 20.1855 8.12265 18.5576 6.90349C16.1187 5.07389 13.3981 4.50416 10.4429 5.66058C7.45009 6.83057 5.8692 8.97895 5.62699 11.9209C5.62136 11.9836 5.60822 12.0464 5.58569 12.1905H0C0 11.7666 0 11.3444 0 10.9205C0.161469 10.2659 0.289142 9.60125 0.488161 8.9569C3.09043 0.521101 14.7218 -3.18048 22.5868 3.29686C25.6435 5.81489 27.6994 8.94334 29.3685 12.3041C31.9013 17.4012 33.4653 22.7679 34.712 28.2177C35.1514 30.1388 35.525 32.0735 35.9587 34.149C36.0451 33.9133 36.1051 33.8014 36.1277 33.6844C37.2411 27.7191 38.6398 21.8166 40.906 16.1091C42.3405 12.4957 44.0791 9.01456 46.6907 5.94714C48.9682 3.27312 51.7075 1.16375 55.4438 0.327798C63.0272 -1.37123 70.9692 3.59529 71.8404 10.5847C71.9024 11.0866 71.9437 11.5902 72 12.1447H66.4387C66.2848 11.4495 66.1909 10.7356 65.9637 10.0591C64.5067 5.71315 58.2845 3.17478 53.463 6.8594C51.2701 8.53299 49.768 10.6644 48.4988 12.9434C46.2044 17.0654 44.755 21.4538 43.5778 25.9201C41.8448 32.4907 40.7915 39.1596 40.0386 45.8727C39.3232 52.2313 38.8764 58.6018 38.7957 64.9927H33.1724H33.1743Z" fill="white"/>
</svg>
