<svg width="77" height="66" viewBox="0 0 77 66" fill="none" xmlns="http://www.w3.org/2000/svg">
<path fill-rule="evenodd" clip-rule="evenodd" d="M76.1099 51.1575C76.209 51.1661 76.3082 51.1747 76.4075 51.1816L76.4036 51.1796V45.1853C76.3125 45.1785 76.2215 45.1699 76.1305 45.1613C75.9282 45.1423 75.726 45.1233 75.5237 45.1233C70.0859 45.1213 64.6461 45.1213 59.2082 45.1213H58.2749C63.0052 39.4674 65.3099 33.1027 64.9334 25.8792C64.5569 18.6497 61.6656 12.5293 56.4279 7.58216C47.2308 -1.10489 33.2399 -1.95177 22.8597 5.58608C17.7845 9.27192 14.37 14.2171 12.8064 20.3314C10.4601 29.509 12.5647 37.7296 18.5613 45.1453H0.5V51.0594H29.6787C29.6787 50.7734 29.6682 50.4913 29.6579 50.2132C29.6355 49.6115 29.6138 49.0282 29.7005 48.4627C29.9522 46.813 29.2983 45.9481 27.8615 45.1072C20.7591 40.9429 16.8333 32.5562 17.9985 24.4277C19.7404 12.267 31.1908 4.30074 43.0712 6.98353C57.1968 10.1709 63.6988 27.2386 55.3439 39.1691C53.3642 41.998 50.8613 44.2003 47.857 45.85C47.6033 45.9902 47.2486 46.2644 47.2407 46.4867C47.2004 47.6252 47.205 48.7648 47.2098 49.9414C47.2114 50.329 47.2129 50.7206 47.2129 51.1175H48.1602C50.4348 51.1175 52.7092 51.1174 54.9836 51.1173C61.8065 51.1169 68.6289 51.1165 75.4523 51.1195C75.6721 51.1195 75.8908 51.1385 76.1099 51.1575ZM76.0883 65.5975C76.1947 65.6065 76.3011 65.6154 76.4075 65.6225V59.3943C76.3165 59.3872 76.2255 59.3783 76.1345 59.3694C75.9323 59.3496 75.73 59.3298 75.5277 59.3298C50.8177 59.3277 26.1057 59.3277 1.39566 59.3277H0.5V65.5559H1.54428C26.1552 65.5559 50.7682 65.5559 75.3791 65.558C75.6155 65.558 75.8519 65.5778 76.0883 65.5975Z" fill="white"/>
</svg>
