<svg width="155" height="138" viewBox="0 0 155 138" fill="none" xmlns="http://www.w3.org/2000/svg">
<path d="M122.714 116.018C125.604 116.018 127.948 113.675 127.948 110.784C127.948 107.893 125.604 105.55 122.714 105.55C119.823 105.55 117.479 107.893 117.479 110.784C117.479 113.675 119.823 116.018 122.714 116.018Z" fill="white"/>
<path d="M121.963 19.019C126.981 19.019 131.048 14.9513 131.048 9.93336C131.048 4.91547 126.981 0.847656 121.963 0.847656C116.945 0.847656 112.877 4.91547 112.877 9.93336C112.877 14.9513 116.945 19.019 121.963 19.019Z" fill="white"/>
<path d="M145.844 85.3442C150.764 85.3442 154.752 81.356 154.752 76.4363C154.752 71.5166 150.764 67.5283 145.844 67.5283C140.925 67.5283 136.937 71.5166 136.937 76.4363C136.937 81.356 140.925 85.3442 145.844 85.3442Z" fill="white"/>
<path d="M47.58 17.4784C52.1725 17.4784 55.8954 13.7555 55.8954 9.16306C55.8954 4.57059 52.1725 0.847656 47.58 0.847656C42.9876 0.847656 39.2646 4.57059 39.2646 9.16306C39.2646 13.7555 42.9876 17.4784 47.58 17.4784Z" fill="white"/>
<path d="M134.782 137.903C136.626 137.903 138.12 136.408 138.12 134.565C138.12 132.721 136.626 131.227 134.782 131.227C132.939 131.227 131.444 132.721 131.444 134.565C131.444 136.408 132.939 137.903 134.782 137.903Z" fill="white"/>
<path d="M50.9181 35.8664C52.7616 35.8664 54.2561 34.372 54.2561 32.5284C54.2561 30.6849 52.7616 29.1904 50.9181 29.1904C49.0746 29.1904 47.5801 30.6849 47.5801 32.5284C47.5801 34.372 49.0746 35.8664 50.9181 35.8664Z" fill="white"/>
<path d="M31.2452 48.6467C33.0888 48.6467 34.5832 47.1522 34.5832 45.3087C34.5832 43.4652 33.0888 41.9707 31.2452 41.9707C29.4017 41.9707 27.9072 43.4652 27.9072 45.3087C27.9072 47.1522 29.4017 48.6467 31.2452 48.6467Z" fill="white"/>
<path d="M4.00793 43.7668C5.85146 43.7668 7.34591 42.2724 7.34591 40.4288C7.34591 38.5853 5.85146 37.0908 4.00793 37.0908C2.1644 37.0908 0.669922 38.5853 0.669922 40.4288C0.669922 42.2724 2.1644 43.7668 4.00793 43.7668Z" fill="white"/>
<path d="M133.737 130.041L125.658 117.42" stroke="white" stroke-miterlimit="10" stroke-linecap="round"/>
<path d="M139.781 85.3447L125.994 103.694" stroke="white" stroke-miterlimit="10" stroke-linecap="round"/>
<path d="M128.028 21.7832L140.788 66.8364" stroke="white" stroke-miterlimit="10" stroke-linecap="round"/>
<path d="M57.9297 3.79102L108.849 5.98343" stroke="white" stroke-miterlimit="10" stroke-linecap="round"/>
<path d="M55.8955 13.8828L135.415 70.3524" stroke="white" stroke-miterlimit="10" stroke-linecap="round"/>
<path d="M49.0225 19L49.694 27.6709" stroke="white" stroke-miterlimit="10" stroke-linecap="round"/>
<path d="M36.0645 43.7688L46.6512 35.8682" stroke="white" stroke-miterlimit="10" stroke-linecap="round"/>
<path d="M9.00488 41.9902L25.1419 44.3012" stroke="white" stroke-miterlimit="10" stroke-linecap="round"/>
</svg>
