<svg width="77" height="82" viewBox="0 0 77 82" fill="none" xmlns="http://www.w3.org/2000/svg">
<path d="M76.4825 48.8696C75.9728 48.2833 70.7139 54.2167 59.68 59.8087C55.6892 61.8316 42.1876 66.9533 37.2084 68.0549C32.6022 69.0728 19.0446 72.075 16.2721 66.8953C15.9427 66.2833 15.8059 65.7486 15.781 65.143C15.6816 62.7722 19.5916 60.0857 24.0238 57.7149C29.4567 58.2174 36.3381 57.0836 43.3314 54.1974C56.0187 48.9598 64.622 39.7923 63.7517 32.8925C67.4068 27.0622 71.4474 18.481 69.5949 11.7036C69.1412 10.0415 68.1217 6.03436 64.8333 3.22549C54.7692 -5.3815 32.5711 4.83608 19.5854 15.1438C6.73642 25.3485 -0.524137 38.375 0.246675 39.0965C0.812352 39.6248 5.44344 33.1502 15.8494 26.3986C19.6164 23.957 32.5276 17.3922 37.3638 15.7559C41.8395 14.2419 55.0179 9.79025 58.3001 14.6413C58.6917 15.2147 58.8782 15.7365 58.9652 16.3357C59.3817 19.2412 54.4584 22.5397 49.8335 25.1682C44.9787 25.239 39.3157 26.4244 33.5719 28.7952C22.4386 33.3886 14.4508 41.0099 13.2448 47.4651C8.9121 52.851 3.53506 61.3549 4.74723 68.5961C5.03317 70.3033 5.64236 74.3942 8.62615 77.5445C17.764 87.1952 40.876 79.445 54.8314 70.5996C68.6439 61.8445 77.1787 49.6813 76.4825 48.876V48.8696Z" fill="white"/>
</svg>
