<svg width="128" height="153" viewBox="0 0 128 153" fill="none" xmlns="http://www.w3.org/2000/svg">
<path d="M25.198 152.492C28.0887 152.492 30.4321 150.148 30.4321 147.258C30.4321 144.367 28.0887 142.023 25.198 142.023C22.3073 142.023 19.9639 144.367 19.9639 147.258C19.9639 150.148 22.3073 152.492 25.198 152.492Z" fill="white"/>
<path d="M5.52515 10.7935C8.4159 10.7935 10.7593 8.45009 10.7593 5.55935C10.7593 2.6686 8.4159 0.325195 5.52515 0.325195C2.63441 0.325195 0.291016 2.6686 0.291016 5.55935C0.291016 8.45009 2.63441 10.7935 5.52515 10.7935Z" fill="white"/>
<path d="M122.534 146.348C125.425 146.348 127.768 144.005 127.768 141.114C127.768 138.223 125.425 135.88 122.534 135.88C119.643 135.88 117.3 138.223 117.3 141.114C117.3 144.005 119.643 146.348 122.534 146.348Z" fill="white"/>
<path d="M53.5018 90.2742C58.5743 90.2742 62.6863 86.1622 62.6863 81.0897C62.6863 76.0173 58.5743 71.9053 53.5018 71.9053C48.4294 71.9053 44.3174 76.0173 44.3174 81.0897C44.3174 86.1622 48.4294 90.2742 53.5018 90.2742Z" fill="white"/>
<path d="M46.0352 55.5696C47.8787 55.5696 49.3732 54.0751 49.3732 52.2316C49.3732 50.388 47.8787 48.8936 46.0352 48.8936C44.1917 48.8936 42.6973 50.388 42.6973 52.2316C42.6973 54.0751 44.1917 55.5696 46.0352 55.5696Z" fill="white"/>
<path d="M9.92969 10.793L40.3668 46.3457" stroke="white" stroke-miterlimit="10" stroke-linecap="round"/>
<path d="M47.083 57.2881L51.2901 70.2253" stroke="white" stroke-miterlimit="10" stroke-linecap="round"/>
<path d="M49.1762 91.7354L29.0889 140.324" stroke="white" stroke-miterlimit="10" stroke-linecap="round"/>
<path d="M62.666 88.8906L115.837 136.788" stroke="white" stroke-miterlimit="10" stroke-linecap="round"/>
</svg>
