<svg width="66" height="66" viewBox="0 0 66 66" fill="none" xmlns="http://www.w3.org/2000/svg">
<path fill-rule="evenodd" clip-rule="evenodd" d="M65.5385 26.9888C65.6182 26.5579 65.698 26.127 65.79 25.7003H65.7883V23.5329C65.7574 23.3432 65.7276 23.1533 65.6977 22.9633C65.6257 22.5052 65.5536 22.0469 65.4671 21.5919C64.8045 18.1085 63.0254 15.2447 60.5276 12.7998C50.6841 3.16493 38.9987 -1.27369 25.2097 0.31652C17.616 1.19335 10.6102 3.75913 4.17363 7.88108C3.35269 8.40748 2.56234 8.98184 1.76261 9.56302C1.38543 9.83712 1.00616 10.1127 0.620606 10.3856C1.52838 11.4264 2.38768 12.4126 3.23743 13.3878C3.48996 13.6776 3.74165 13.9665 3.99352 14.2555C4.13299 14.1506 4.26708 14.0485 4.39787 13.9489C4.69571 13.7222 4.97642 13.5085 5.26452 13.3038C11.3629 8.97583 18.1241 6.35727 25.5343 5.40212C31.1484 4.67853 36.6589 5.07863 42.0182 6.96339C43.155 7.36282 44.2666 7.83194 45.3781 8.30108C45.8965 8.51984 46.4148 8.7386 46.9357 8.95029C46.928 8.98006 46.92 9.00941 46.9119 9.03875C46.9038 9.06815 46.8958 9.09754 46.8881 9.12736C46.8379 9.14143 46.7877 9.15619 46.7373 9.17097C46.6293 9.20272 46.5208 9.23461 46.4106 9.26016C38.4567 11.1262 33.1382 18.9649 34.4041 26.9585C35.5476 34.1808 41.1329 39.4724 48.4582 40.2709C55.6645 41.0558 62.6278 36.6172 64.9064 29.7149C65.1971 28.8331 65.3678 27.9109 65.5385 26.9888ZM39.3318 24.6634C39.325 18.752 44.0878 13.9644 49.984 13.9559C55.8803 13.9474 60.6771 18.7248 60.6907 24.6191C60.7043 30.459 55.899 35.2534 50.0282 35.2602C44.1405 35.267 39.3403 30.5117 39.3318 24.6634ZM32.9038 65.055C33.2567 65.0925 33.6096 65.1301 33.9621 65.1694H37.6543C38.0262 65.1317 38.3986 65.0962 38.7712 65.0607C39.6182 64.98 40.4656 64.8993 41.309 64.792C50.3565 63.6429 58.5333 60.3532 65.7305 54.6624C65.7414 54.6538 65.7567 54.6496 65.7719 54.6454C65.7781 54.6437 65.7842 54.642 65.79 54.6401V54.5114C65.3047 53.9729 64.8194 53.4341 64.3337 52.8948C63.6994 52.1905 63.0644 51.4854 62.4278 50.7793C58.1897 54.0998 53.5078 56.5062 48.4075 58.0515C40.5522 60.4321 32.6594 60.8849 24.7717 58.2127C23.5544 57.8 22.3651 57.2993 21.1758 56.7987C20.6305 56.5692 20.0851 56.3396 19.5371 56.1185L19.583 55.9179C19.6361 55.9026 19.6887 55.8867 19.7413 55.8708C19.8422 55.8404 19.9428 55.81 20.0456 55.7841C27.8482 53.8374 32.9145 46.5875 32.0761 38.564C31.1118 29.3416 22.3177 22.879 13.3008 24.7673C1.2873 27.2818 -3.45584 41.6221 4.65632 50.8993C7.08656 53.6779 9.88585 56.0242 12.9487 58.0515C18.3602 61.6327 24.2445 63.9705 30.6866 64.8023C31.4236 64.8976 32.1637 64.9763 32.9038 65.055ZM27.088 40.2963C27.0863 46.2444 22.3092 51.0589 16.4028 51.0606V51.0623C10.51 51.064 5.70903 46.2307 5.71073 40.2963C5.71413 34.4099 10.5236 29.5989 16.4045 29.6006C22.2956 29.6023 27.0897 34.403 27.088 40.2963Z" fill="white"/>
</svg>
