<svg width="66" height="64" viewBox="0 0 66 64" fill="none" xmlns="http://www.w3.org/2000/svg">
<path d="M65.9966 45.1503C65.8881 45.6566 65.7935 46.1646 65.6661 46.6659C64.2428 52.2337 58.8884 55.8565 53.0005 55.2248C45.9974 54.4746 41.137 50.9136 38.3471 44.654C38.3144 44.5805 38.2713 44.5086 38.1956 44.3616C35.6811 47.0602 33.9978 50.1566 32.8567 53.5572C31.7243 56.9326 31.2372 60.4067 31.1959 63.9927H26.0257C26.0808 62.8581 26.098 61.7201 26.1978 60.5888C26.6126 55.8314 27.8002 51.2762 30.0737 47.0185C31.7518 43.877 33.9324 41.1131 36.7206 38.8205C37.0321 38.5648 37.1406 38.3075 37.1406 37.9198C37.1302 30.2281 37.1406 22.5364 37.1285 14.8447C37.1216 9.68458 33.2509 5.5555 27.9602 5.02912C22.969 4.53283 18.2962 7.91999 17.2395 12.8361C17.0829 13.563 17.0381 14.325 17.0364 15.0703C17.0226 24.575 17.0278 34.0798 17.0278 43.5862V44.3632H11.8731V43.6096C11.8731 31.8958 11.8731 20.1802 11.8731 8.46641C11.8731 6.66338 10.7612 5.32657 9.04359 5.03581C7.07637 4.70328 5.21586 6.21388 5.17972 8.20072C5.1539 9.65952 5.17283 11.1183 5.17283 12.5788C5.17283 12.7826 5.17283 12.9865 5.17283 13.2221H0.078372C0.061161 13.1419 0.0198545 13.045 0.0215756 12.9498C0.0456711 11.013 -0.0989015 9.05628 0.140332 7.14296C0.603308 3.41659 3.4001 0.742963 7.19857 0.099621C7.30011 0.0812398 7.39477 0.0294382 7.49288 -0.00732422C8.1796 -0.00732422 8.86804 -0.00732422 9.55476 -0.00732422C9.63048 0.0260961 9.70449 0.0778977 9.78366 0.0895948C12.4944 0.52406 14.5287 1.90933 15.9263 4.19529C15.9865 4.29388 16.0743 4.37743 16.1638 4.48604C18.2171 2.47247 20.6111 1.10725 23.4079 0.437167C24.1514 0.258368 24.9104 0.139725 25.6625 -0.00732422C26.6074 -0.00732422 27.5523 -0.00732422 28.4972 -0.00732422C29.2493 0.138054 30.01 0.255026 30.7536 0.435496C37.5054 2.08145 42.2436 7.90662 42.2781 14.6709C42.3108 21.2798 42.2849 27.8887 42.2867 34.4975C42.2867 34.7365 42.2867 34.9754 42.2867 35.2712C42.4691 35.2027 42.5672 35.1726 42.6619 35.1308C46.438 33.4615 50.4154 32.7396 54.5461 32.773C59.7541 32.8131 64.3288 36.3056 65.6196 41.2033C65.7677 41.7631 65.8744 42.3346 66 42.9011V45.1519L65.9966 45.1503ZM54.2122 50.277C57.7766 50.302 60.687 47.6936 60.8315 44.3448C60.9778 40.9343 58.3291 37.9398 54.8714 37.8045C50.6512 37.639 46.6531 38.528 42.9631 40.5884C42.6206 40.7789 42.5638 40.9627 42.6533 41.3287C43.8959 46.4119 48.8269 50.2402 54.2122 50.277Z" fill="white"/>
</svg>
