<svg width="195" height="160" viewBox="0 0 195 160" fill="none" xmlns="http://www.w3.org/2000/svg">
<path d="M99.4471 66.4449C102.338 66.4449 104.681 64.1015 104.681 61.2108C104.681 58.32 102.338 55.9766 99.4471 55.9766C96.5563 55.9766 94.2129 58.32 94.2129 61.2108C94.2129 64.1015 96.5563 66.4449 99.4471 66.4449Z" fill="white"/>
<path d="M170.058 47.2857C172.949 47.2857 175.293 44.9423 175.293 42.0515C175.293 39.1608 172.949 36.8174 170.058 36.8174C167.168 36.8174 164.824 39.1608 164.824 42.0515C164.824 44.9423 167.168 47.2857 170.058 47.2857Z" fill="white"/>
<path d="M9.38071 82.0681C14.355 82.0681 18.3874 78.0356 18.3874 73.0614C18.3874 68.0871 14.355 64.0547 9.38071 64.0547C4.40645 64.0547 0.374023 68.0871 0.374023 73.0614C0.374023 78.0356 4.40645 82.0681 9.38071 82.0681Z" fill="white"/>
<path d="M55.0263 122.006C59.6188 122.006 63.3417 118.283 63.3417 113.69C63.3417 109.098 59.6188 105.375 55.0263 105.375C50.4339 105.375 46.7109 109.098 46.7109 113.69C46.7109 118.283 50.4339 122.006 55.0263 122.006Z" fill="white"/>
<path d="M129.667 159.493C134.259 159.493 137.982 155.77 137.982 151.178C137.982 146.585 134.259 142.862 129.667 142.862C125.074 142.862 121.352 146.585 121.352 151.178C121.352 155.77 125.074 159.493 129.667 159.493Z" fill="white"/>
<path d="M185.505 18.9218C190.534 18.9218 194.61 14.8452 194.61 9.81639C194.61 4.78759 190.534 0.710938 185.505 0.710938C180.476 0.710938 176.399 4.78759 176.399 9.81639C176.399 14.8452 180.476 18.9218 185.505 18.9218Z" fill="white"/>
<path d="M143.157 122.005C145.001 122.005 146.495 120.511 146.495 118.667C146.495 116.824 145.001 115.329 143.157 115.329C141.314 115.329 139.819 116.824 139.819 118.667C139.819 120.511 141.314 122.005 143.157 122.005Z" fill="white"/>
<path d="M34.8995 96.465C36.7431 96.465 38.2375 94.9706 38.2375 93.1271C38.2375 91.2835 36.7431 89.7891 34.8995 89.7891C33.056 89.7891 31.5615 91.2835 31.5615 93.1271C31.5615 94.9706 33.056 96.465 34.8995 96.465Z" fill="white"/>
<path d="M36.42 58.3069C38.2636 58.3069 39.7581 56.8124 39.7581 54.9689C39.7581 53.1253 38.2636 51.6309 36.42 51.6309C34.5765 51.6309 33.082 53.1253 33.082 54.9689C33.082 56.8124 34.5765 58.3069 36.42 58.3069Z" fill="white"/>
<path d="M66.6798 64.9631C68.5233 64.9631 70.0178 63.4686 70.0178 61.6251C70.0178 59.7816 68.5233 58.2871 66.6798 58.2871C64.8362 58.2871 63.3418 59.7816 63.3418 61.6251C63.3418 63.4686 64.8362 64.9631 66.6798 64.9631Z" fill="white"/>
<path d="M167.787 49.1211L145.251 113.689" stroke="white" stroke-miterlimit="10" stroke-linecap="round"/>
<path d="M140.887 123.427L134.665 140.235" stroke="white" stroke-miterlimit="10" stroke-linecap="round"/>
<path d="M63.3613 119.556L119.199 146.635" stroke="white" stroke-miterlimit="10" stroke-linecap="round"/>
<path d="M38.2373 96.4463L47.4217 106.954" stroke="white" stroke-miterlimit="10" stroke-linecap="round"/>
<path d="M18.3877 79.0459L30.4559 88.9611" stroke="white" stroke-miterlimit="10" stroke-linecap="round"/>
<path d="M19.3555 64.9631L31.5817 58.2871" stroke="white" stroke-miterlimit="10" stroke-linecap="round"/>
<path d="M41.7129 55.9551L61.2077 60.3992" stroke="white" stroke-miterlimit="10" stroke-linecap="round"/>
<path d="M72.3086 62.5721L92.1391 61.624" stroke="white" stroke-miterlimit="10" stroke-linecap="round"/>
<path d="M107.782 59.3919L162.415 45.0918" stroke="white" stroke-miterlimit="10" stroke-linecap="round"/>
<path d="M181.91 20.5605L174.01 36.7963" stroke="white" stroke-miterlimit="10" stroke-linecap="round"/>
</svg>
