<svg width="91" height="92" viewBox="0 0 91 92" fill="none" xmlns="http://www.w3.org/2000/svg">
<path d="M89.1931 32.0708C88.114 31.8797 87.3161 32.4713 86.9443 33.7271C85.0853 39.9789 81.3131 44.7109 75.6365 47.896C74.7388 48.3965 73.7685 48.7969 72.8073 49.1791C72.5988 49.261 72.1635 49.1336 72.0456 48.9607C71.9277 48.7787 72.0275 48.3965 72.1454 48.1599C72.2451 47.9597 72.499 47.8323 72.6804 47.6685C78.3206 42.4268 80.642 35.9566 79.1096 28.4126C77.4592 20.3317 72.4809 14.9444 64.5283 12.8332C56.485 10.7037 49.5389 13.0061 43.9258 19.2033C43.6175 19.54 43.2911 20.0587 42.8286 19.6219C42.611 19.4126 42.6201 18.7755 42.7561 18.4297C46.1475 9.78461 54.7983 3.77852 64.0386 3.80582C73.1882 3.83312 80.107 7.90088 84.8224 15.7634C85.5387 16.9464 86.5543 17.3377 87.5609 16.7735C88.5402 16.2184 88.7488 15.0718 88.0959 13.8888C80.2612 -0.307437 61.2094 -4.4389 48.3057 5.32555C41.0694 10.7947 37.3969 18.1567 37.2609 27.2751C37.2609 27.6027 37.2156 28.0941 37.007 28.2397C35.7738 29.0678 34.4952 29.8231 33.0987 30.6785C32.8901 30.4237 32.6816 30.1143 32.4277 29.8595C26.3884 23.7897 20.3491 17.729 14.3008 11.6683C14.1285 11.4954 13.9653 11.3134 13.7749 11.1587C12.9678 10.5126 11.8797 10.5672 11.1996 11.2679C10.5285 11.9595 10.4923 12.9788 11.1089 13.7796C11.2812 13.998 11.4807 14.1891 11.6711 14.3802C15.8786 18.6026 20.0862 22.8251 24.2937 27.0476C26.3884 29.1406 28.4831 31.2336 30.5506 33.2903C29.7798 34.5279 29.0453 35.5835 28.4378 36.7119C28.1385 37.2579 27.8121 37.3853 27.2317 37.4126C25.527 37.5036 23.804 37.5491 22.1355 37.8676C7.32755 40.7524 -2.23915 54.6301 0.535643 69.5452C2.49432 80.0558 8.73308 87.2723 18.8529 90.5301C29.0635 93.8153 38.3672 91.5584 46.1747 84.1145C51.679 78.8546 54.2905 72.2388 54.3631 64.6038C54.3631 64.258 54.481 63.7757 54.7167 63.6119C55.8956 62.802 57.1288 62.0831 58.3893 61.3005C58.5706 61.4643 58.7882 61.6736 59.0059 61.8829C64.4467 67.3339 69.8784 72.7939 75.3191 78.254C76.1353 79.073 76.9332 79.9193 77.7947 80.702C78.5745 81.4118 79.6536 81.3754 80.3609 80.6929C81.0864 79.9921 81.1226 78.8728 80.4335 78.0356C80.2793 77.8445 80.098 77.6807 79.9257 77.5078C73.9045 71.4653 67.8925 65.4228 61.8623 59.3894C61.5902 59.1164 61.2094 58.9435 60.9555 58.7797C61.7988 57.4511 62.5242 56.4228 63.1137 55.3217C63.4492 54.7029 63.7938 54.4845 64.5101 54.4754C72.9796 54.4117 79.9347 51.0719 85.4027 44.6108C87.8692 41.6988 89.5558 38.359 90.5896 34.6826C90.9614 33.354 90.372 32.2619 89.2113 32.0526L89.1931 32.0708ZM26.1617 44.265C25.8353 50.3348 27.6217 55.6311 31.9289 59.9446C36.209 64.2398 41.4684 66.0325 47.4896 65.6776C46.0115 71.7292 38.2674 76.4977 30.7954 75.9881C23.2418 75.4785 16.6766 69.0356 15.924 61.4188C15.1804 53.8839 19.8141 46.0942 26.1617 44.265ZM48.9858 73.1398C48.7953 73.7768 48.5142 74.3956 48.1969 74.9962C43.7536 83.4866 36.6896 87.7455 28.7824 88.1277C13.4575 88.1277 2.57593 76.3703 3.89079 62.6564C4.77038 53.4198 9.64895 46.8677 18.0731 43.0092C18.2907 42.9091 18.5265 42.7453 18.7532 42.7544C19.0434 42.7635 19.4151 42.8454 19.5874 43.0456C19.6963 43.1639 19.524 43.5734 19.4151 43.8282C19.3517 43.9829 19.1431 44.0648 19.0162 44.1922C12.7955 49.9617 10.5648 57.0507 12.9043 65.1862C15.2529 73.3308 20.9204 78.254 29.272 79.5826C36.472 80.7202 42.6201 78.3359 47.5349 72.894C47.6618 72.7575 47.7435 72.5573 47.8976 72.4845C48.1697 72.3662 48.5777 72.1842 48.7409 72.3025C48.9314 72.439 49.0492 72.9031 48.9767 73.1488L48.9858 73.1398ZM65.4804 47.6412C65.7706 41.5805 63.9842 36.266 59.686 31.9616C55.4059 27.6846 50.1465 25.9101 44.1344 26.2286C45.8392 20.0223 53.6739 15.2447 60.8829 15.9272C68.763 16.6734 75.0108 22.9889 75.7453 30.9333C76.4073 38.1133 71.6285 45.9394 65.4804 47.6412Z" fill="white"/>
</svg>
