<svg width="64" height="65" viewBox="0 0 64 65" fill="none" xmlns="http://www.w3.org/2000/svg">
<path d="M60.3524 -0.00732422C60.9684 0.60838 61.5811 1.23087 62.2038 1.83809C62.758 2.37747 63.3256 2.90158 63.9883 3.52916C62.6311 4.73173 61.3574 5.94448 60.0002 7.05207C55.5998 10.6445 50.7503 13.4313 45.4016 15.2954C45.0628 15.4141 44.9693 15.5837 44.9693 15.9348C44.9776 27.0039 44.9793 38.073 44.9659 49.1404C44.9659 49.5882 45.1729 49.6883 45.5152 49.8104C52.1525 52.1698 58.007 55.8385 63.1386 60.7133C63.3957 60.9575 63.6795 61.1746 64 61.446C62.6962 62.6791 61.4993 63.8105 60.3341 64.9113C58.9685 63.746 57.6848 62.5706 56.3209 61.5003C50.9857 57.3142 45.0578 54.4121 38.4053 53.1417C33.1385 52.1358 27.9184 52.4106 22.7668 53.8693C15.5918 55.8996 9.34509 59.6125 3.91132 64.7637C3.83786 64.8332 3.75773 64.8977 3.64756 64.9927C2.45396 63.8308 1.27205 62.6791 0 61.4392C1.29876 60.313 2.51239 59.1884 3.79947 58.1572C8.24331 54.5936 13.1162 51.7983 18.4765 49.9173C18.8938 49.7714 18.994 49.5679 18.9923 49.1489C18.9806 38.0798 18.979 27.0107 18.9973 15.9433C18.9973 15.4226 18.777 15.2682 18.3663 15.1207C11.7456 12.7291 5.90453 9.03317 0.744535 4.20083C0.515833 3.98712 0.258751 3.80563 0.293808 3.67333C1.40393 2.44531 2.51573 1.21899 3.62585 -0.00732422C3.66759 -0.00732422 3.70932 -0.00732422 3.75106 -0.00732422C3.97475 0.238618 4.18008 0.501522 4.42214 0.725414C9.1264 5.08114 14.45 8.39881 20.4781 10.497C26.3359 12.5357 32.3205 13.1226 38.4387 11.937C44.617 10.7395 50.1944 8.1393 55.2225 4.35009C56.982 3.0237 58.5646 1.45137 60.2272 -0.00732422C60.269 -0.00732422 60.3107 -0.00732422 60.3524 -0.00732422ZM39.9512 17.0187C37.2835 17.2222 34.6359 17.5937 31.99 17.5801C29.3307 17.5682 26.6731 17.1747 24.0255 16.9491V48.3348C29.3491 47.2119 34.6376 47.1848 39.9495 48.2669V17.0187H39.9512Z" fill="white"/>
</svg>
