<svg width="191" height="148" viewBox="0 0 191 148" fill="none" xmlns="http://www.w3.org/2000/svg">
<path d="M5.37281 93.0669C8.26355 93.0669 10.607 90.7235 10.607 87.8328C10.607 84.942 8.26355 82.5986 5.37281 82.5986C2.48207 82.5986 0.138672 84.942 0.138672 87.8328C0.138672 90.7235 2.48207 93.0669 5.37281 93.0669Z" fill="white"/>
<path d="M91.6082 111.91C94.4989 111.91 96.8423 109.566 96.8423 106.676C96.8423 103.785 94.4989 101.441 91.6082 101.441C88.7174 101.441 86.374 103.785 86.374 106.676C86.374 109.566 88.7174 111.91 91.6082 111.91Z" fill="white"/>
<path d="M49.7537 111.91C52.6444 111.91 54.9878 109.566 54.9878 106.676C54.9878 103.785 52.6444 101.441 49.7537 101.441C46.8629 101.441 44.5195 103.785 44.5195 106.676C44.5195 109.566 46.8629 111.91 49.7537 111.91Z" fill="white"/>
<path d="M36.1267 35.9644C39.0175 35.9644 41.3609 33.621 41.3609 30.7302C41.3609 27.8395 39.0175 25.4961 36.1267 25.4961C33.236 25.4961 30.8926 27.8395 30.8926 30.7302C30.8926 33.621 33.236 35.9644 36.1267 35.9644Z" fill="white"/>
<path d="M63.3045 27.6499C66.1953 27.6499 68.5387 25.3065 68.5387 22.4158C68.5387 19.525 66.1953 17.1816 63.3045 17.1816C60.4138 17.1816 58.0703 19.525 58.0703 22.4158C58.0703 25.3065 60.4138 27.6499 63.3045 27.6499Z" fill="white"/>
<path d="M153.826 35.9644C156.717 35.9644 159.06 33.621 159.06 30.7302C159.06 27.8395 156.717 25.4961 153.826 25.4961C150.935 25.4961 148.592 27.8395 148.592 30.7302C148.592 33.621 150.935 35.9644 153.826 35.9644Z" fill="white"/>
<path d="M185.093 10.9996C187.983 10.9996 190.327 8.65614 190.327 5.7654C190.327 2.87466 187.983 0.53125 185.093 0.53125C182.202 0.53125 179.858 2.87466 179.858 5.7654C179.858 8.65614 182.202 10.9996 185.093 10.9996Z" fill="white"/>
<path d="M119.043 32.8843C121.934 32.8843 124.277 30.5409 124.277 27.6502C124.277 24.7594 121.934 22.416 119.043 22.416C116.152 22.416 113.809 24.7594 113.809 27.6502C113.809 30.5409 116.152 32.8843 119.043 32.8843Z" fill="white"/>
<path d="M177.587 147.918C180.477 147.918 182.821 145.574 182.821 142.683C182.821 139.793 180.477 137.449 177.587 137.449C174.696 137.449 172.353 139.793 172.353 142.683C172.353 145.574 174.696 147.918 177.587 147.918Z" fill="white"/>
<path d="M11.1199 45.3092C15.996 45.3092 19.9489 41.3564 19.9489 36.4803C19.9489 31.6042 15.996 27.6514 11.1199 27.6514C6.24386 27.6514 2.29102 31.6042 2.29102 36.4803C2.29102 41.3564 6.24386 45.3092 11.1199 45.3092Z" fill="white"/>
<path d="M154.892 114.024C160.063 114.024 164.255 109.833 164.255 104.662C164.255 99.4914 160.063 95.2998 154.892 95.2998C149.722 95.2998 145.53 99.4914 145.53 104.662C145.53 109.833 149.722 114.024 154.892 114.024Z" fill="white"/>
<path d="M164.649 62.5305C166.492 62.5305 167.987 61.036 167.987 59.1925C167.987 57.349 166.492 55.8545 164.649 55.8545C162.805 55.8545 161.311 57.349 161.311 59.1925C161.311 61.036 162.805 62.5305 164.649 62.5305Z" fill="white"/>
<path d="M22.4376 110.014C24.2811 110.014 25.7756 108.519 25.7756 106.676C25.7756 104.832 24.2811 103.338 22.4376 103.338C20.5941 103.338 19.0996 104.832 19.0996 106.676C19.0996 108.519 20.5941 110.014 22.4376 110.014Z" fill="white"/>
<path d="M18.9416 102.943L10.6064 94.0156" stroke="white" stroke-miterlimit="10" stroke-linecap="round"/>
<path d="M9.69762 48.1318L6.16211 80.07" stroke="white" stroke-miterlimit="10" stroke-linecap="round"/>
<path d="M21.4502 31.9949L29.1928 31.8369" stroke="white" stroke-miterlimit="10" stroke-linecap="round"/>
<path d="M42.4658 27.649L54.9883 24.0938" stroke="white" stroke-miterlimit="10" stroke-linecap="round"/>
<path d="M70.0391 22.416L111.557 25.8725" stroke="white" stroke-miterlimit="10" stroke-linecap="round"/>
<path d="M126.352 27.6514L145.511 29.4685" stroke="white" stroke-miterlimit="10" stroke-linecap="round"/>
<path d="M156.768 36.9922L162.318 54.176" stroke="white" stroke-miterlimit="10" stroke-linecap="round"/>
<path d="M164.254 65.6133L159.553 93.0679" stroke="white" stroke-miterlimit="10" stroke-linecap="round"/>
<path d="M99.1143 106.677H142.824" stroke="white" stroke-miterlimit="10" stroke-linecap="round"/>
<path d="M56.5889 106.677H83.9843" stroke="white" stroke-miterlimit="10" stroke-linecap="round"/>
<path d="M27.3359 106.677H43.3544" stroke="white" stroke-miterlimit="10" stroke-linecap="round"/>
<path d="M164.649 114.023L174.249 134.703" stroke="white" stroke-miterlimit="10" stroke-linecap="round"/>
<path d="M178.968 11.0186L160.48 25.8717" stroke="white" stroke-miterlimit="10" stroke-linecap="round"/>
</svg>
