<svg width="85" height="47" viewBox="0 0 85 47" fill="none" xmlns="http://www.w3.org/2000/svg">
<g clip-path="url(#clip0_221_1706)">
<path d="M72.3817 6.75645C64.3883 2.39884 53.775 0 42.4987 0C31.2224 0 20.6117 2.39884 12.6183 6.75645C4.48058 11.1892 0 17.1353 0 23.5C0 29.8647 4.48058 35.8108 12.6183 40.2435C20.6117 44.6012 31.225 47 42.5013 47C53.7776 47 64.3883 44.6012 72.3843 40.2435C80.5221 35.8081 85.0027 29.862 85.0027 23.5C85.0027 17.138 80.5221 11.1892 72.3843 6.75645H72.3817ZM30.3455 2.47128C21.2801 6.2198 14.9789 14.0254 14.7838 23.068H1.48907C1.83928 13.3868 13.8882 5.21626 30.3455 2.47128ZM37.4674 1.99098C35.8874 3.17698 34.4465 4.92915 33.222 7.19382C30.9149 11.4602 29.6237 17.0816 29.5649 23.068H16.2675C16.5108 12.614 25.5628 3.93098 37.47 1.99098H37.4674ZM1.48372 23.6637H14.7811C14.856 32.819 21.1919 40.7426 30.3482 44.5287C13.7358 41.7569 1.61739 33.4603 1.48372 23.6637ZM16.2621 23.6637H29.5595C29.5836 29.7493 30.8802 35.4781 33.222 39.8062C34.4465 42.0709 35.8874 43.8257 37.4674 45.009C25.4586 43.0529 16.3557 34.2384 16.2621 23.6637ZM42.2046 45.2988C36.0505 44.9983 31.086 35.4271 31.0406 23.661H35.7885C40.0285 24.6887 41.1753 25.7056 42.2046 29.6983V45.2988ZM42.2046 17.299C41.2636 20.9455 40.2263 22.1101 36.8204 23.068H31.0432C31.1635 11.4253 36.0959 1.99635 42.2046 1.6985V17.299ZM83.5109 23.068H70.2162C70.0211 14.0254 63.7226 6.2198 54.6545 2.47128C71.1145 5.21626 83.1634 13.3868 83.5109 23.068ZM68.7352 23.068H55.4378C55.379 17.0816 54.0877 11.4602 51.7806 7.19382C50.5562 4.92915 49.1153 3.1743 47.5353 1.99098C59.4425 3.93098 68.4946 12.614 68.7378 23.068H68.7352ZM42.7954 1.6985C48.9041 1.99635 53.8364 11.4253 53.9568 23.068H48.1796C44.7737 22.1101 43.7364 20.9455 42.7954 17.299V1.6985ZM42.7954 29.701C43.8247 25.7083 44.9715 24.6914 49.2115 23.6637H53.9594C53.914 35.4298 48.9495 45.001 42.7954 45.3015V29.701ZM51.7779 39.8035C54.1198 35.4754 55.4164 29.7466 55.4405 23.661H68.7378C68.6443 34.2357 59.5388 43.0502 47.5326 45.0063C49.1126 43.8203 50.5535 42.0682 51.7779 39.8035ZM54.6518 44.5287C63.8081 40.7426 70.144 32.819 70.2189 23.6637H83.5163C83.3826 33.4603 71.2642 41.7569 54.6518 44.5287Z" fill="#8D8D8D"/>
</g>
<defs>
<clipPath id="clip0_221_1706">
<rect width="85" height="47" fill="white"/>
</clipPath>
</defs>
</svg>
