<svg width="57" height="64" viewBox="0 0 57 64" fill="none" xmlns="http://www.w3.org/2000/svg">
<path d="M35.5724 -0.00732422C36.8104 0.236458 38.0737 0.391744 39.2811 0.737381C47.4335 3.07836 52.834 10.4803 52.6139 18.8474C52.4716 24.2774 50.475 29.0362 47.2862 33.3424C45.271 36.0641 43.0779 38.6589 40.9899 41.3305C39.2811 43.5162 37.7401 45.8021 37.0457 48.5271C36.3074 51.4224 36.4937 54.1524 38.619 56.5001C40.6427 58.7342 43.8705 59.6008 46.7104 58.5706C49.7384 57.4719 51.4522 55.2912 51.823 52.112C51.8451 51.9283 51.8654 51.7447 51.8891 51.5259H57C56.8476 52.5428 56.7832 53.5547 56.5377 54.5214C55.0389 60.3956 49.5335 64.3495 43.4505 63.9672C37.4031 63.5865 32.4192 58.9947 31.6842 53.0237C31.2608 49.5924 32.0923 46.3698 33.6723 43.3158C35.1711 40.4205 37.2236 37.9058 39.2845 35.3979C41.3032 32.9384 43.3573 30.5039 44.9374 27.7288C46.7883 24.4778 47.7316 21.0147 47.5081 17.2628C47.1626 11.4705 42.5377 6.29762 36.7341 5.24568C28.956 3.83642 21.8112 8.92413 20.7782 16.6283C20.4802 18.8541 20.8493 21.0364 21.4539 23.172C22.4293 26.615 23.5013 30.033 24.4683 33.4794C25.0881 35.6918 25.4708 37.9459 25.3286 40.2635C24.9882 45.782 20.6664 50.6159 15.1474 51.6211C7.8502 52.9519 1.14064 48.1864 0.114391 40.9481C-0.837343 34.2357 4.2668 27.7421 11.0661 26.9724C13.122 26.7386 15.1067 26.9507 17.0492 27.6286C17.1592 27.667 17.271 27.6987 17.4302 27.7471C17.0187 26.1792 16.5919 24.6848 16.2363 23.1737C14.8138 17.1393 15.7858 11.5773 19.8078 6.71339C22.9899 2.85795 27.1474 0.665582 32.1685 0.101209C32.3328 0.0828419 32.4937 0.0294101 32.6563 -0.00732422C33.6283 -0.00732422 34.6004 -0.00732422 35.5724 -0.00732422ZM20.2922 39.3401C20.2735 35.1975 16.8544 31.8497 12.6546 31.8647C8.49711 31.8781 5.0983 35.2459 5.09152 39.3535C5.08644 43.5095 8.53775 46.8891 12.7613 46.8623C16.9137 46.8356 20.3091 43.4427 20.2922 39.3418V39.3401Z" fill="white"/>
</svg>
