<svg width="182" height="143" viewBox="0 0 182 143" fill="none" xmlns="http://www.w3.org/2000/svg">
<path d="M40.0925 91.5445C42.9833 91.5445 45.3267 89.2011 45.3267 86.3103C45.3267 83.4196 42.9833 81.0762 40.0925 81.0762C37.2018 81.0762 34.8584 83.4196 34.8584 86.3103C34.8584 89.2011 37.2018 91.5445 40.0925 91.5445Z" fill="white"/>
<path d="M176.773 30.8882C179.664 30.8882 182.007 28.5448 182.007 25.6541C182.007 22.7633 179.664 20.4199 176.773 20.4199C173.882 20.4199 171.539 22.7633 171.539 25.6541C171.539 28.5448 173.882 30.8882 176.773 30.8882Z" fill="white"/>
<path d="M65.3162 122.968C68.2069 122.968 70.5503 120.625 70.5503 117.734C70.5503 114.843 68.2069 112.5 65.3162 112.5C62.4254 112.5 60.082 114.843 60.082 117.734C60.082 120.625 62.4254 122.968 65.3162 122.968Z" fill="white"/>
<path d="M161.545 121.586C166.563 121.586 170.63 117.519 170.63 112.501C170.63 107.483 166.563 103.415 161.545 103.415C156.527 103.415 152.459 107.483 152.459 112.501C152.459 117.519 156.527 121.586 161.545 121.586Z" fill="white"/>
<path d="M116.412 69.0468C121.005 69.0468 124.727 65.3238 124.727 60.7314C124.727 56.1389 121.005 52.416 116.412 52.416C111.82 52.416 108.097 56.1389 108.097 60.7314C108.097 65.3238 111.82 69.0468 116.412 69.0468Z" fill="white"/>
<path d="M143.333 18.6215C148.373 18.6215 152.458 14.536 152.458 9.4963C152.458 4.45659 148.373 0.371094 143.333 0.371094C138.294 0.371094 134.208 4.45659 134.208 9.4963C134.208 14.536 138.294 18.6215 143.333 18.6215Z" fill="white"/>
<path d="M10.0508 142.444C15.1778 142.444 19.334 138.288 19.334 133.161C19.334 128.034 15.1778 123.878 10.0508 123.878C4.92381 123.878 0.767578 128.034 0.767578 133.161C0.767578 138.288 4.92381 142.444 10.0508 142.444Z" fill="white"/>
<path d="M146.829 81.0764C148.673 81.0764 150.167 79.5819 150.167 77.7384C150.167 75.8949 148.673 74.4004 146.829 74.4004C144.986 74.4004 143.491 75.8949 143.491 77.7384C143.491 79.5819 144.986 81.0764 146.829 81.0764Z" fill="white"/>
<path d="M114.556 33.4748C116.399 33.4748 117.894 31.9804 117.894 30.1368C117.894 28.2933 116.399 26.7988 114.556 26.7988C112.712 26.7988 111.218 28.2933 111.218 30.1368C111.218 31.9804 112.712 33.4748 114.556 33.4748Z" fill="white"/>
<path d="M157.85 101.578L150.167 83.9199" stroke="white" stroke-miterlimit="10" stroke-linecap="round"/>
<path d="M142.544 74.3999L127.75 65.9463" stroke="white" stroke-miterlimit="10" stroke-linecap="round"/>
<path d="M170.611 22.3947L154 14.6719" stroke="white" stroke-miterlimit="10" stroke-linecap="round"/>
<path d="M134.228 14.6719L117.894 25.6537" stroke="white" stroke-miterlimit="10" stroke-linecap="round"/>
<path d="M114.557 35.0156L116.413 50.3033" stroke="white" stroke-miterlimit="10" stroke-linecap="round"/>
<path d="M108.077 65.2539L46.7285 83.4253" stroke="white" stroke-miterlimit="10" stroke-linecap="round"/>
<path d="M34.8586 91.5439L14.6133 122.988" stroke="white" stroke-miterlimit="10" stroke-linecap="round"/>
<path d="M21.8428 130.158L57.988 119.394" stroke="white" stroke-miterlimit="10" stroke-linecap="round"/>
<path d="M73.7881 116.036L149.101 112.5" stroke="white" stroke-miterlimit="10" stroke-linecap="round"/>
</svg>
