<svg width="154" height="202" viewBox="0 0 154 202" fill="none" xmlns="http://www.w3.org/2000/svg">
<path d="M60.4588 97.5162C63.3496 97.5162 65.6929 95.1727 65.6929 92.282C65.6929 89.3912 63.3496 87.0479 60.4588 87.0479C57.5681 87.0479 55.2246 89.3912 55.2246 92.282C55.2246 95.1727 57.5681 97.5162 60.4588 97.5162Z" fill="white"/>
<path d="M97.7087 139.389C100.599 139.389 102.943 137.046 102.943 134.155C102.943 131.264 100.599 128.921 97.7087 128.921C94.818 128.921 92.4746 131.264 92.4746 134.155C92.4746 137.046 94.818 139.389 97.7087 139.389Z" fill="white"/>
<path d="M92.7119 46.8329C97.3043 46.8329 101.027 43.11 101.027 38.5175C101.027 33.9251 97.3043 30.2021 92.7119 30.2021C88.1194 30.2021 84.3965 33.9251 84.3965 38.5175C84.3965 43.11 88.1194 46.8329 92.7119 46.8329Z" fill="white"/>
<path d="M112.286 161.768C116.879 161.768 120.601 158.045 120.601 153.452C120.601 148.86 116.879 145.137 112.286 145.137C107.694 145.137 103.971 148.86 103.971 153.452C103.971 158.045 107.694 161.768 112.286 161.768Z" fill="white"/>
<path d="M137.667 156.789C139.511 156.789 141.005 155.295 141.005 153.451C141.005 151.608 139.511 150.113 137.667 150.113C135.824 150.113 134.329 151.608 134.329 153.451C134.329 155.295 135.824 156.789 137.667 156.789Z" fill="white"/>
<path d="M150.288 178.3C152.132 178.3 153.626 176.806 153.626 174.962C153.626 173.119 152.132 171.624 150.288 171.624C148.445 171.624 146.95 173.119 146.95 174.962C146.95 176.806 148.445 178.3 150.288 178.3Z" fill="white"/>
<path d="M134.35 200.145C136.193 200.145 137.688 198.65 137.688 196.807C137.688 194.963 136.193 193.469 134.35 193.469C132.506 193.469 131.012 194.963 131.012 196.807C131.012 198.65 132.506 200.145 134.35 200.145Z" fill="white"/>
<path d="M113.294 201.41C115.138 201.41 116.632 199.916 116.632 198.072C116.632 196.229 115.138 194.734 113.294 194.734C111.451 194.734 109.956 196.229 109.956 198.072C109.956 199.916 111.451 201.41 113.294 201.41Z" fill="white"/>
<path d="M95.1417 179.979C96.9853 179.979 98.4797 178.484 98.4797 176.641C98.4797 174.797 96.9853 173.303 95.1417 173.303C93.2982 173.303 91.8037 174.797 91.8037 176.641C91.8037 178.484 93.2982 179.979 95.1417 179.979Z" fill="white"/>
<path d="M73.2784 109.208C75.122 109.208 76.6165 107.714 76.6165 105.87C76.6165 104.027 75.122 102.532 73.2784 102.532C71.4349 102.532 69.9404 104.027 69.9404 105.87C69.9404 107.714 71.4349 109.208 73.2784 109.208Z" fill="white"/>
<path d="M37.0929 81.5969C38.9364 81.5969 40.4309 80.1024 40.4309 78.2589C40.4309 76.4154 38.9364 74.9209 37.0929 74.9209C35.2494 74.9209 33.7549 76.4154 33.7549 78.2589C33.7549 80.1024 35.2494 81.5969 37.0929 81.5969Z" fill="white"/>
<path d="M23.2257 68.4807C25.0692 68.4807 26.5637 66.9862 26.5637 65.1427C26.5637 63.2992 25.0692 61.8047 23.2257 61.8047C21.3822 61.8047 19.8877 63.2992 19.8877 65.1427C19.8877 66.9862 21.3822 68.4807 23.2257 68.4807Z" fill="white"/>
<path d="M3.92981 54.4963C5.77334 54.4963 7.26782 53.0018 7.26782 51.1583C7.26782 49.3148 5.77334 47.8203 3.92981 47.8203C2.08628 47.8203 0.591797 49.3148 0.591797 51.1583C0.591797 53.0018 2.08628 54.4963 3.92981 54.4963Z" fill="white"/>
<path d="M35.0773 55.9993C36.9208 55.9993 38.4153 54.5048 38.4153 52.6613C38.4153 50.8177 36.9208 49.3232 35.0773 49.3232C33.2337 49.3232 31.7393 50.8177 31.7393 52.6613C31.7393 54.5048 33.2337 55.9993 35.0773 55.9993Z" fill="white"/>
<path d="M61.9211 50.7836C64.3974 50.7836 66.4047 48.7762 66.4047 46.3C66.4047 43.8238 64.3974 41.8164 61.9211 41.8164C59.4449 41.8164 57.4375 43.8238 57.4375 46.3C57.4375 48.7762 59.4449 50.7836 61.9211 50.7836Z" fill="white"/>
<path d="M89.3741 7.46899C91.2177 7.46899 92.7122 5.97451 92.7122 4.13098C92.7122 2.28745 91.2177 0.792969 89.3741 0.792969C87.5306 0.792969 86.0361 2.28745 86.0361 4.13098C86.0361 5.97451 87.5306 7.46899 89.3741 7.46899Z" fill="white"/>
<path d="M123.664 19.8137C125.508 19.8137 127.002 18.3192 127.002 16.4757C127.002 14.6322 125.508 13.1377 123.664 13.1377C121.821 13.1377 120.326 14.6322 120.326 16.4757C120.326 18.3192 121.821 19.8137 123.664 19.8137Z" fill="white"/>
<path d="M122.637 152.602L131.88 152.089" stroke="white" stroke-miterlimit="10" stroke-linecap="round"/>
<path d="M141.005 156.771L148.846 170.083" stroke="white" stroke-miterlimit="10" stroke-linecap="round"/>
<path d="M148.511 178.3L138.773 192.442" stroke="white" stroke-miterlimit="10" stroke-linecap="round"/>
<path d="M129.352 198.071H118.43" stroke="white" stroke-miterlimit="10" stroke-linecap="round"/>
<path d="M109.185 194.752L98.4795 182.861" stroke="white" stroke-miterlimit="10" stroke-linecap="round"/>
<path d="M97.71 172.433L105.828 161.768" stroke="white" stroke-miterlimit="10" stroke-linecap="round"/>
<path d="M102.964 138.658L106.499 145.117" stroke="white" stroke-miterlimit="10" stroke-linecap="round"/>
<path d="M77.2461 109.208L92.7115 127.715" stroke="white" stroke-miterlimit="10" stroke-linecap="round"/>
<path d="M65.6924 96.7842L69.9389 101.505" stroke="white" stroke-miterlimit="10" stroke-linecap="round"/>
<path d="M41.1016 80.8252L53.2092 88.2122" stroke="white" stroke-miterlimit="10" stroke-linecap="round"/>
<path d="M26.5449 68.4805L33.7542 74.9195" stroke="white" stroke-miterlimit="10" stroke-linecap="round"/>
<path d="M7.26758 54.4766L18.2297 61.8241" stroke="white" stroke-miterlimit="10" stroke-linecap="round"/>
<path d="M9.49902 51.1592L30.1591 52.6603" stroke="white" stroke-miterlimit="10" stroke-linecap="round"/>
<path d="M40.4111 51.1583L55.2051 47.8203" stroke="white" stroke-miterlimit="10" stroke-linecap="round"/>
<path d="M67.8262 44.6804L82.62 41.8164" stroke="white" stroke-miterlimit="10" stroke-linecap="round"/>
<path d="M89.375 9.71973L91.0341 28.5429" stroke="white" stroke-miterlimit="10" stroke-linecap="round"/>
<path d="M95.7344 5.17773L117.915 13.1574" stroke="white" stroke-miterlimit="10" stroke-linecap="round"/>
<path d="M101.027 32.9087L118.093 19.8135" stroke="white" stroke-miterlimit="10" stroke-linecap="round"/>
</svg>
