<svg width="43" height="65" viewBox="0 0 43 65" fill="none" xmlns="http://www.w3.org/2000/svg">
<path d="M3.5756 64.9927C2.3897 63.8418 1.20381 62.6909 0.0374664 61.5586C5.79914 53.7311 8.19211 44.7713 8.73944 35.0742H0.483805V29.9773H8.71989C8.13998 20.2564 5.6672 11.3068 0 3.39285C1.19078 2.28771 2.39296 1.1707 3.65867 -0.00562922C10.1778 8.85246 13.0155 18.953 13.628 29.9095H29.372C29.9731 18.9784 32.814 8.85924 39.3413 -0.00732422C40.6038 1.16562 41.7978 2.27246 43 3.38946C37.3442 11.2611 34.8665 20.2208 34.2785 29.9366H42.2784V35.0352H34.2622C34.7949 44.7577 37.196 53.7226 42.9707 61.5671C41.8011 62.6976 40.6119 63.8452 39.4244 64.9927H39.3022C39.2517 64.8842 39.2208 64.7605 39.1491 64.6723C37.5967 62.7587 36.3147 60.6552 35.1923 58.4483C31.8774 51.9344 30.092 44.9662 29.5365 37.6387C29.4714 36.7844 29.4176 35.9284 29.3574 35.0843H13.6296C13.6117 35.2843 13.5905 35.4488 13.584 35.6149C13.4064 39.9998 12.7663 44.3119 11.6081 48.5325C10.0524 54.2057 7.74251 59.5009 4.23859 64.1842C4.04474 64.4435 3.87533 64.7232 3.69451 64.9927H3.57234H3.5756Z" fill="white"/>
</svg>
