<svg width="185" height="161" viewBox="0 0 185 161" fill="none" xmlns="http://www.w3.org/2000/svg">
<path d="M58.5135 31.4996C61.4042 31.4996 63.7476 29.1561 63.7476 26.2654C63.7476 23.3746 61.4042 21.0312 58.5135 21.0312C55.6227 21.0312 53.2793 23.3746 53.2793 26.2654C53.2793 29.1561 55.6227 31.4996 58.5135 31.4996Z" fill="white"/>
<path d="M87.3113 48.151C90.202 48.151 92.5455 45.8075 92.5455 42.9168C92.5455 40.026 90.202 37.6826 87.3113 37.6826C84.4206 37.6826 82.0771 40.026 82.0771 42.9168C82.0771 45.8075 84.4206 48.151 87.3113 48.151Z" fill="white"/>
<path d="M179.096 23.1841C181.987 23.1841 184.331 20.8407 184.331 17.95C184.331 15.0592 181.987 12.7158 179.096 12.7158C176.206 12.7158 173.862 15.0592 173.862 17.95C173.862 20.8407 176.206 23.1841 179.096 23.1841Z" fill="white"/>
<path d="M171.018 63.9527C173.909 63.9527 176.252 61.6093 176.252 58.7185C176.252 55.8278 173.909 53.4844 171.018 53.4844C168.128 53.4844 165.784 55.8278 165.784 58.7185C165.784 61.6093 168.128 63.9527 171.018 63.9527Z" fill="white"/>
<path d="M135.408 142.621C138.299 142.621 140.642 140.277 140.642 137.386C140.642 134.496 138.299 132.152 135.408 132.152C132.517 132.152 130.174 134.496 130.174 137.386C130.174 140.277 132.517 142.621 135.408 142.621Z" fill="white"/>
<path d="M103.645 75.3476C108.238 75.3476 111.961 71.6247 111.961 67.0322C111.961 62.4398 108.238 58.7168 103.645 58.7168C99.053 58.7168 95.3301 62.4398 95.3301 67.0322C95.3301 71.6247 99.053 75.3476 103.645 75.3476Z" fill="white"/>
<path d="M118.775 21.9013C123.368 21.9013 127.091 18.1784 127.091 13.5859C127.091 8.99345 123.368 5.27051 118.775 5.27051C114.183 5.27051 110.46 8.99345 110.46 13.5859C110.46 18.1784 114.183 21.9013 118.775 21.9013Z" fill="white"/>
<path d="M168.195 160.061C172.788 160.061 176.511 156.338 176.511 151.746C176.511 147.154 172.788 143.431 168.195 143.431C163.603 143.431 159.88 147.154 159.88 151.746C159.88 156.338 163.603 160.061 168.195 160.061Z" fill="white"/>
<path d="M150.26 36.4182C152.103 36.4182 153.598 34.9237 153.598 33.0802C153.598 31.2366 152.103 29.7422 150.26 29.7422C148.416 29.7422 146.922 31.2366 146.922 33.0802C146.922 34.9237 148.416 36.4182 150.26 36.4182Z" fill="white"/>
<path d="M104.871 44.3381C106.715 44.3381 108.209 42.8436 108.209 41.0001C108.209 39.1566 106.715 37.6621 104.871 37.6621C103.028 37.6621 101.533 39.1566 101.533 41.0001C101.533 42.8436 103.028 44.3381 104.871 44.3381Z" fill="white"/>
<path d="M83.1837 66.1838C85.0272 66.1838 86.5217 64.6893 86.5217 62.8458C86.5217 61.0022 85.0272 59.5078 83.1837 59.5078C81.3402 59.5078 79.8457 61.0022 79.8457 62.8458C79.8457 64.6893 81.3402 66.1838 83.1837 66.1838Z" fill="white"/>
<path d="M59.4816 7.36352C61.3251 7.36352 62.8196 5.86904 62.8196 4.02551C62.8196 2.18198 61.3251 0.6875 59.4816 0.6875C57.638 0.6875 56.1436 2.18198 56.1436 4.02551C56.1436 5.86904 57.638 7.36352 59.4816 7.36352Z" fill="white"/>
<path d="M34.9308 31.5207C36.7743 31.5207 38.2688 30.0263 38.2688 28.1827C38.2688 26.3392 36.7743 24.8447 34.9308 24.8447C33.0872 24.8447 31.5928 26.3392 31.5928 28.1827C31.5928 30.0263 33.0872 31.5207 34.9308 31.5207Z" fill="white"/>
<path d="M3.84191 21.9016C5.68544 21.9016 7.17992 20.4071 7.17992 18.5636C7.17992 16.7201 5.68544 15.2256 3.84191 15.2256C1.99838 15.2256 0.503906 16.7201 0.503906 18.5636C0.503906 20.4071 1.99838 21.9016 3.84191 21.9016Z" fill="white"/>
<path d="M8.58203 21.0312L29.4396 26.2654" stroke="white" stroke-miterlimit="10" stroke-linecap="round"/>
<path d="M40.5195 28.1812L51.2841 27.4307" stroke="white" stroke-miterlimit="10" stroke-linecap="round"/>
<path d="M59.4824 9.79395V19.8672" stroke="white" stroke-miterlimit="10" stroke-linecap="round"/>
<path d="M82.0575 39.2028L64.5576 30.4727" stroke="white" stroke-miterlimit="10" stroke-linecap="round"/>
<path d="M94.1465 42.2256H99.6967" stroke="white" stroke-miterlimit="10" stroke-linecap="round"/>
<path d="M114.648 21.9014L107.083 36.399" stroke="white" stroke-miterlimit="10" stroke-linecap="round"/>
<path d="M85.2376 49.79L83.8945 58.7177" stroke="white" stroke-miterlimit="10" stroke-linecap="round"/>
<path d="M88.5947 65.0977L93.3153 65.2556" stroke="white" stroke-miterlimit="10" stroke-linecap="round"/>
<path d="M115.319 67.942L163.572 61.4043" stroke="white" stroke-miterlimit="10" stroke-linecap="round"/>
<path d="M154.664 37.6621L166.594 52.6536" stroke="white" stroke-miterlimit="10" stroke-linecap="round"/>
<path d="M127.091 18.5625L145.42 29.7419" stroke="white" stroke-miterlimit="10" stroke-linecap="round"/>
<path d="M156.009 30.4719L172.146 23.1836" stroke="white" stroke-miterlimit="10" stroke-linecap="round"/>
<path d="M179.097 26.8193L173.843 50.6397" stroke="white" stroke-miterlimit="10" stroke-linecap="round"/>
<path d="M108.188 77.3633L130.172 129.804" stroke="white" stroke-miterlimit="10" stroke-linecap="round"/>
<path d="M141.728 140.41L158.358 147.797" stroke="white" stroke-miterlimit="10" stroke-linecap="round"/>
</svg>
