<svg width="65" height="65" viewBox="0 0 65 65" fill="none" xmlns="http://www.w3.org/2000/svg">
<path d="M65 32.53C64.9253 32.5674 64.8523 32.6387 64.7776 32.6387C63.1712 32.6455 61.5648 32.6438 59.8804 32.6438V8.95772C50.9978 17.7785 42.1204 26.5958 33.1801 35.4759C36.386 38.6697 39.5919 41.8635 42.7605 45.02C41.56 46.217 40.3951 47.3801 39.254 48.5194C36.1211 45.385 32.9237 42.1878 29.7619 39.0263C20.9846 47.7587 12.3024 56.3961 3.66102 64.9927C2.4469 63.7753 1.27354 62.5986 0 61.3235C8.64482 52.7455 17.3304 44.1252 26.0177 35.5048C22.7557 32.2431 19.5837 29.0731 16.4695 25.9608C17.6955 24.7416 18.8756 23.5684 20.0677 22.3832C23.1327 25.448 26.3148 28.6316 29.4036 31.7201C38.3524 22.8196 47.2332 13.9887 56.1786 5.09325H33.6029V-0.00732422H64.9983V32.53H65Z" fill="white"/>
</svg>
