<svg width="180" height="162" viewBox="0 0 180 162" fill="none" xmlns="http://www.w3.org/2000/svg">
<path d="M165.38 64.2411C168.423 64.2411 170.891 61.7739 170.891 58.7304C170.891 55.687 168.423 53.2197 165.38 53.2197C162.336 53.2197 159.869 55.687 159.869 58.7304C159.869 61.7739 162.336 64.2411 165.38 64.2411Z" fill="white"/>
<path d="M93.2868 118.776C96.5593 118.776 99.2122 116.123 99.2122 112.85C99.2122 109.578 96.5593 106.925 93.2868 106.925C90.0142 106.925 87.3613 109.578 87.3613 112.85C87.3613 116.123 90.0142 118.776 93.2868 118.776Z" fill="white"/>
<path d="M24.7888 100.801C27.6796 100.801 30.023 98.4579 30.023 95.5671C30.023 92.6764 27.6796 90.333 24.7888 90.333C21.8981 90.333 19.5547 92.6764 19.5547 95.5671C19.5547 98.4579 21.8981 100.801 24.7888 100.801Z" fill="white"/>
<path d="M105.949 66.7897C111.043 66.7897 115.173 62.66 115.173 57.5658C115.173 52.4715 111.043 48.3418 105.949 48.3418C100.854 48.3418 96.7246 52.4715 96.7246 57.5658C96.7246 62.66 100.854 66.7897 105.949 66.7897Z" fill="white"/>
<path d="M9.06732 125.53C13.6598 125.53 17.3828 121.807 17.3828 117.215C17.3828 112.622 13.6598 108.899 9.06732 108.899C4.47486 108.899 0.751953 112.622 0.751953 117.215C0.751953 121.807 4.47486 125.53 9.06732 125.53Z" fill="white"/>
<path d="M157.321 38.5839C161.914 38.5839 165.637 34.861 165.637 30.2685C165.637 25.676 161.914 21.9531 157.321 21.9531C152.729 21.9531 149.006 25.676 149.006 30.2685C149.006 34.861 152.729 38.5839 157.321 38.5839Z" fill="white"/>
<path d="M120.19 51.6789C122.033 51.6789 123.528 50.1844 123.528 48.3409C123.528 46.4974 122.033 45.0029 120.19 45.0029C118.346 45.0029 116.852 46.4974 116.852 48.3409C116.852 50.1844 118.346 51.6789 120.19 51.6789Z" fill="white"/>
<path d="M134.469 7.63304C136.312 7.63304 137.807 6.13856 137.807 4.29503C137.807 2.4515 136.312 0.957031 134.469 0.957031C132.625 0.957031 131.131 2.4515 131.131 4.29503C131.131 6.13856 132.625 7.63304 134.469 7.63304Z" fill="white"/>
<path d="M176.165 84.2873C178.009 84.2873 179.503 82.7929 179.503 80.9493C179.503 79.1058 178.009 77.6113 176.165 77.6113C174.322 77.6113 172.827 79.1058 172.827 80.9493C172.827 82.7929 174.322 84.2873 176.165 84.2873Z" fill="white"/>
<path d="M88.0529 81.761C89.8964 81.761 91.3909 80.2665 91.3909 78.423C91.3909 76.5794 89.8964 75.085 88.0529 75.085C86.2093 75.085 84.7148 76.5794 84.7148 78.423C84.7148 80.2665 86.2093 81.761 88.0529 81.761Z" fill="white"/>
<path d="M102.63 146.663C104.474 146.663 105.968 145.169 105.968 143.325C105.968 141.482 104.474 139.987 102.63 139.987C100.786 139.987 99.292 141.482 99.292 143.325C99.292 145.169 100.786 146.663 102.63 146.663Z" fill="white"/>
<path d="M77.7433 160.945C79.5868 160.945 81.0813 159.45 81.0813 157.607C81.0813 155.763 79.5868 154.269 77.7433 154.269C75.8998 154.269 74.4053 155.763 74.4053 157.607C74.4053 159.45 75.8998 160.945 77.7433 160.945Z" fill="white"/>
<path d="M43.6319 161.793C45.4754 161.793 46.9699 160.299 46.9699 158.455C46.9699 156.612 45.4754 155.117 43.6319 155.117C41.7884 155.117 40.2939 156.612 40.2939 158.455C40.2939 160.299 41.7884 161.793 43.6319 161.793Z" fill="white"/>
<path d="M22.8926 151.029C24.7362 151.029 26.2306 149.534 26.2306 147.691C26.2306 145.847 24.7362 144.353 22.8926 144.353C21.0491 144.353 19.5547 145.847 19.5547 147.691C19.5547 149.534 21.0491 151.029 22.8926 151.029Z" fill="white"/>
<path d="M138.756 7.63281L151.693 21.9527" stroke="white" stroke-miterlimit="10" stroke-linecap="round"/>
<path d="M161.115 40.4404L162.458 52.5481" stroke="white" stroke-miterlimit="10" stroke-linecap="round"/>
<path d="M168.343 65.4854L172.826 75.9141" stroke="white" stroke-miterlimit="10" stroke-linecap="round"/>
<path d="M125.304 46.4838L148.176 34.8896" stroke="white" stroke-miterlimit="10" stroke-linecap="round"/>
<path d="M97.7308 64.9912L91.3906 73.8991" stroke="white" stroke-miterlimit="10" stroke-linecap="round"/>
<path d="M87.3613 83.6377L91.3907 105.661" stroke="white" stroke-miterlimit="10" stroke-linecap="round"/>
<path d="M94.5527 120.118L100.439 137.934" stroke="white" stroke-miterlimit="10" stroke-linecap="round"/>
<path d="M81.7715 155.927L98.2442 145.498" stroke="white" stroke-miterlimit="10" stroke-linecap="round"/>
<path d="M48.6494 158.456H72.1932" stroke="white" stroke-miterlimit="10" stroke-linecap="round"/>
<path d="M27.4766 149.527L37.3919 155.927" stroke="white" stroke-miterlimit="10" stroke-linecap="round"/>
<path d="M12.8594 128.019L20.2464 142.477" stroke="white" stroke-miterlimit="10" stroke-linecap="round"/>
<path d="M21.4312 100.801L14.2021 108.899" stroke="white" stroke-miterlimit="10" stroke-linecap="round"/>
</svg>
