<svg width="65" height="65" viewBox="0 0 65 65" fill="none" xmlns="http://www.w3.org/2000/svg">
<path d="M36.2903 -0.00732422C36.782 0.0981649 37.277 0.193445 37.767 0.312546C42.8859 1.5631 46.4244 6.02937 46.4568 11.343C46.4857 16.2261 46.4636 21.1092 46.4636 25.9923C46.4636 32.7862 46.4636 39.58 46.4636 46.3739C46.4636 49.8244 48.6088 51.9546 52.0742 51.9563C53.151 51.9563 54.2296 51.9563 55.5038 51.9563C53.8587 50.2769 52.3294 48.7167 50.8374 47.1956C52.0401 45.9893 53.2072 44.8204 54.313 43.7111C57.8515 47.2518 61.4445 50.8452 65 54.4029C61.5074 57.8926 57.9229 61.4741 54.3997 64.9927C53.2803 63.8833 52.0997 62.7111 50.9446 61.566C52.3123 60.1402 53.7601 58.6327 55.2827 57.0453C54.9492 57.0453 54.6651 57.0589 54.3844 57.0436C52.6322 56.9466 50.8255 57.0759 49.1362 56.6948C44.5106 55.6535 41.3803 51.5105 41.3752 46.6954C41.3633 35.0185 41.3718 23.3415 41.3701 11.6645C41.3701 8.92862 40.2116 6.85797 37.7176 5.67718C33.747 3.79539 29.0482 6.70825 28.9121 11.1099C28.8611 12.7432 28.8951 14.3783 28.8951 16.0134C28.8951 27.0966 28.8951 38.178 28.8951 49.2612C28.8951 49.5147 28.8951 49.7682 28.8951 50.0745H23.8034C23.8034 49.792 23.8034 49.5232 23.8034 49.2544C23.8034 36.7284 23.8051 24.2024 23.8034 11.6764C23.8034 8.60195 22.0579 6.14337 19.3343 5.35561C15.3211 4.19352 11.3539 7.1268 11.3369 11.3259C11.3097 18.3103 11.3284 25.2964 11.3284 32.2808C11.3284 37.95 11.3284 43.6175 11.3284 49.2867V50.0881H6.23665C6.23665 49.7835 6.23665 49.5113 6.23665 49.2408C6.23665 36.6927 6.23835 24.1463 6.23665 11.5982C6.23665 8.47434 4.39764 6.02427 1.50728 5.30116C1.01733 5.17866 0.503559 5.15994 0 5.09358V-0.00732422C0.384474 -0.00732422 0.762144 -0.00732422 1.14151 -0.00732422C1.23678 0.0301074 1.33035 0.0862548 1.42902 0.0998663C4.2054 0.463974 6.52076 1.70432 8.4074 3.76136C8.51798 3.88216 8.59624 4.03529 8.73914 4.24457C8.9688 3.97404 9.09809 3.8107 9.2393 3.65927C10.8078 1.97315 12.7098 0.8502 14.9503 0.309143C15.4385 0.191744 15.9319 0.0981649 16.4235 -0.00732422C17.1448 -0.00732422 17.8662 -0.00732422 18.5892 -0.00732422C18.6895 0.0250031 18.7865 0.0743448 18.8903 0.0879563C21.7943 0.445258 24.193 1.75026 26.1307 3.9315C26.2072 4.01828 26.311 4.08123 26.408 4.1595C28.0615 2.21645 30.0724 0.911452 32.5221 0.314247C33.0104 0.193445 33.5054 0.0981649 33.9971 -0.00732422C34.7609 -0.00732422 35.5248 -0.00732422 36.2886 -0.00732422H36.2903Z" fill="white"/>
</svg>
