<svg width="735" height="97" viewBox="0 0 735 97" fill="none" xmlns="http://www.w3.org/2000/svg">
<path d="M2.2245 95V81.688H55.4725C63.4085 81.688 68.7845 76.312 68.7845 68.376C68.7845 60.44 63.4085 55.064 55.4725 55.064H27.3125C11.4405 55.064 0.6885 43.8 0.6885 28.44C0.6885 14.36 11.4405 1.81599 27.3125 1.81599H75.6965V15.128H28.8485C20.9125 15.128 15.5365 20.504 15.5365 28.44C15.5365 36.376 20.9125 41.752 28.8485 41.752H57.0085C72.8805 41.752 83.6325 53.016 83.6325 68.376C83.6325 82.2 72.8805 95 57.0085 95H2.2245ZM126.082 95V15.128H91.7775V1.81599H175.234V15.128H140.93V95H126.082ZM187.767 95V1.81599H269.687V15.128H202.871V41.752H268.663V55.064H202.871V81.688H269.687V95H187.767ZM285.517 95V1.81599H300.621V81.688H340.557V95H285.517ZM350.767 95V1.81599H365.871V81.688H405.807V95H350.767ZM408.849 95L448.785 1.81599H462.097L502.033 95H487.185L481.553 81.688H429.329L423.953 95H408.849ZM434.961 68.376H475.921L455.441 19.224L434.961 68.376ZM512.267 95V1.81599H567.051C583.179 1.81599 593.931 13.848 593.931 28.44C593.931 39.704 587.275 49.688 576.779 53.528L593.931 95H578.315L561.675 55.064H527.371V95H512.267ZM527.371 41.752H565.515C573.451 41.752 578.826 36.376 578.826 28.44C578.826 20.504 573.451 15.128 565.515 15.128H527.371V41.752ZM608.017 95V1.81599H623.121V95H608.017ZM686.853 96.28C658.437 96.28 638.469 76.824 638.469 48.408C638.469 22.04 660.485 0.535995 686.853 0.535995C715.269 0.535995 734.981 19.992 734.981 48.408C734.981 74.52 712.965 96.28 686.853 96.28ZM686.853 82.712C705.797 82.712 719.621 67.352 719.621 48.408C719.621 29.464 705.797 14.104 686.853 14.104C667.909 14.104 653.829 29.464 653.829 48.408C653.829 67.352 667.909 82.712 686.853 82.712Z" fill="white"/>
</svg>
