<svg width="115" height="89" viewBox="0 0 115 89" fill="none" xmlns="http://www.w3.org/2000/svg">
<path fill-rule="evenodd" clip-rule="evenodd" d="M83.7762 12.9578C76.4203 6.42401 67.0006 2.81998 57.2643 2.81998C37.2941 2.81998 20.4902 17.2826 17.2674 37.5117L14.8418 38.5289C18.2625 17.0966 36.1011 0.332031 57.2643 0.332031C67.583 0.332031 77.5624 4.15114 85.3537 11.0744C93.0715 17.9337 98.2676 28.6702 99.8225 38.9765L97.346 38.0755C95.8816 28.3505 91.0587 19.4276 83.7762 12.9578ZM57.2866 72.657C64.3429 66.0302 75.6397 57.1364 91.4202 50.9514C99.9296 47.6148 107.766 45.8418 114.28 44.8827C107.721 43.6852 99.8787 41.6216 91.4202 37.9769C75.5154 31.1292 64.2694 21.6541 57.2866 14.6437C51.4234 20.2822 42.767 27.4264 31.0857 33.5881C19.15 39.8835 8.21499 42.947 0.231445 44.5339C7.49692 45.2024 18.9181 47.1613 31.5154 53.4277C43.8243 59.5487 52.2771 67.3032 57.281 72.657H57.2866ZM57.2643 86.2472C36.6156 86.2472 19.3198 70.651 16.9847 49.5965L14.5704 48.6839C17.0412 70.9998 35.383 88.7351 57.2643 88.7351C79.1455 88.7351 96.8088 72.453 99.8111 50.8637L99.8903 49.9802L97.4873 50.7184C94.649 71.0928 77.3193 86.2472 57.2643 86.2472Z" fill="white"/>
</svg>
