<svg width="105" height="61" viewBox="0 0 105 61" fill="none" xmlns="http://www.w3.org/2000/svg">
<path d="M101.669 40.9529C101.221 41.4387 93.1772 49.7664 77.5201 47.8666C80.7066 43.2517 82.6616 37.7086 82.9027 31.7231C86.2701 31.6537 89.1725 31.1506 91.5667 30.4913C99.7828 28.2186 104.02 23.6817 104.201 23.4909C104.847 22.7883 104.804 21.6953 104.106 21.0447C103.409 20.3941 102.323 20.4288 101.678 21.1314C101.281 21.5565 95.0116 28.0451 82.8597 28.314C81.7401 12.5175 68.6236 0 52.6565 0C42.4509 0 33.4166 5.11803 27.9306 12.9339C11.8946 13.1421 1.50818 20.8104 1.35316 20.9232C0.595277 21.4957 0.440257 22.5887 1.00867 23.3521C1.57708 24.1155 2.66222 24.2716 3.4201 23.6991C3.47178 23.6557 9.06975 19.5006 18.2332 17.462C20.7566 16.8982 23.2886 16.5599 25.8206 16.4124C23.6331 20.6283 22.3843 25.4167 22.3843 30.5C22.3843 31.3848 22.4274 32.261 22.5049 33.1197C9.58649 34.6725 1.49095 40.6493 1.35316 40.7534C0.595277 41.3259 0.440257 42.4189 1.00867 43.1823C1.57708 43.9457 2.66222 44.1018 3.4201 43.5293C3.47178 43.4859 9.06975 39.3308 18.2332 37.2922C19.8093 36.9453 21.3939 36.6763 22.9786 36.4855C25.7517 50.443 38.007 61 52.6651 61C61.5443 61 69.5365 57.1311 75.0828 50.9808C77.589 51.3972 79.9143 51.5707 82.0674 51.5707C85.8051 51.5707 88.983 51.0415 91.5753 50.3215C99.7914 48.0488 104.029 43.5119 104.21 43.3211C104.855 42.6185 104.812 41.5255 104.115 40.8749C103.417 40.2243 102.332 40.259 101.686 40.9616L101.669 40.9529ZM52.6565 3.46985C66.6945 3.46985 78.2349 14.3825 79.3889 28.2272C73.2053 27.7762 65.7471 25.729 56.9798 20.8018C47.9714 15.7358 39.5744 13.5671 32.1851 13.0553C37.1113 7.19994 44.4576 3.46985 52.6565 3.46985ZM25.8206 30.5C25.8206 25.3126 27.2847 20.4548 29.8081 16.3343C38.2826 16.5599 46.8173 19.0582 55.2918 23.8292C64.7481 29.1468 72.8522 31.2373 79.4492 31.6537C79.1995 37.5178 77.0895 42.9047 73.6962 47.2247C68.77 46.1664 63.1979 44.1192 56.9712 40.6233C45.3102 34.0653 34.6913 32.365 25.924 32.8248C25.8551 32.0528 25.8206 31.2807 25.8206 30.5ZM52.6565 57.5301C39.8069 57.5301 29.0416 48.3784 26.4321 36.2079C36.0175 35.7742 45.6891 38.2551 55.3004 43.6594C61.0706 46.9037 66.3414 48.9423 71.0695 50.1394C66.2638 54.7196 59.7788 57.5301 52.6565 57.5301Z" fill="white"/>
</svg>
