<svg width="56" height="65" viewBox="0 0 56 65" fill="none" xmlns="http://www.w3.org/2000/svg">
<path d="M56 -0.00732422V4.97771C54.9463 5.1127 53.9259 5.18502 52.9294 5.38269C50.3309 5.89855 48.3426 7.38345 46.8455 9.53367C45.8251 10.9993 44.8954 12.5372 43.9847 14.0752C42.3302 16.8618 40.5708 19.552 37.8387 21.519C44.0228 24.7877 48.1376 29.7149 49.897 36.5223C51.1128 41.2229 50.8029 45.8801 49.0578 50.4023C45.5009 59.6155 36.4703 65.5069 26.8342 64.9573C17.0312 64.398 8.75879 57.634 6.16501 48.0544C3.43295 37.959 8.03883 26.4654 18.0802 21.5479C18.0516 21.4997 18.0373 21.437 17.9944 21.4081C15.6819 19.7062 14.0417 17.421 12.5589 14.996C11.4384 13.164 10.3561 11.303 9.145 9.53367C7.12814 6.5735 4.23874 5.18502 0.71043 5.07896C0.505407 5.07414 0.295615 5.07896 0 5.07896V-0.00732422C0.54355 -0.00732422 1.0871 -0.00732422 1.63065 -0.00732422C1.85475 0.0360659 2.07884 0.0890982 2.30294 0.113204C5.4212 0.455503 8.22001 1.5499 10.604 3.64708C12.0868 4.94879 13.2836 6.49154 14.3278 8.16447C15.5341 10.0929 16.6689 12.0696 17.9038 13.9787C19.5535 16.5291 21.742 18.3708 24.7888 18.9782C26.7579 19.3688 28.7319 19.388 30.7154 19.0698C33.0994 18.6842 35.1401 17.638 36.6897 15.7674C37.6385 14.62 38.4681 13.3665 39.2787 12.113C40.3229 10.5075 41.2431 8.82014 42.3016 7.22435C44.6045 3.75797 47.6656 1.33295 51.7803 0.44104C52.6338 0.257837 53.5063 0.14213 54.3694 -0.0025031H56V-0.00732422ZM45.5772 42.1678C45.5963 32.381 37.7243 24.3924 28.0453 24.3634C18.3663 24.3393 10.4562 32.2845 10.4181 42.0714C10.3847 51.8776 18.2805 59.8999 27.9785 59.9047C37.6576 59.9144 45.5533 51.9499 45.5724 42.163L45.5772 42.1678Z" fill="white"/>
</svg>
