<svg width="193" height="186" viewBox="0 0 193 186" fill="none" xmlns="http://www.w3.org/2000/svg">
<path d="M26.2263 11.0581C29.1171 11.0581 31.4605 8.71474 31.4605 5.82399C31.4605 2.93325 29.1171 0.589844 26.2263 0.589844C23.3356 0.589844 20.9922 2.93325 20.9922 5.82399C20.9922 8.71474 23.3356 11.0581 26.2263 11.0581Z" fill="white"/>
<path d="M71.1228 51.9253C74.0136 51.9253 76.357 49.5819 76.357 46.6912C76.357 43.8004 74.0136 41.457 71.1228 41.457C68.2321 41.457 65.8887 43.8004 65.8887 46.6912C65.8887 49.5819 68.2321 51.9253 71.1228 51.9253Z" fill="white"/>
<path d="M103.396 103.91C106.287 103.91 108.63 101.566 108.63 98.6756C108.63 95.7848 106.287 93.4414 103.396 93.4414C100.506 93.4414 98.1621 95.7848 98.1621 98.6756C98.1621 101.566 100.506 103.91 103.396 103.91Z" fill="white"/>
<path d="M100.592 84.3951C103.482 84.3951 105.826 82.0516 105.826 79.1609C105.826 76.2702 103.482 73.9268 100.592 73.9268C97.7008 73.9268 95.3574 76.2702 95.3574 79.1609C95.3574 82.0516 97.7008 84.3951 100.592 84.3951Z" fill="white"/>
<path d="M85.7383 65.5918C87.1891 65.5918 88.3652 64.4157 88.3652 62.9648C88.3652 61.514 87.1891 60.3379 85.7383 60.3379C84.2875 60.3379 83.1113 61.514 83.1113 62.9648C83.1113 64.4157 84.2875 65.5918 85.7383 65.5918Z" fill="white"/>
<path d="M93.4415 73.2756C95.2851 73.2756 96.7795 71.7811 96.7795 69.9376C96.7795 68.0941 95.2851 66.5996 93.4415 66.5996C91.598 66.5996 90.1035 68.0941 90.1035 69.9376C90.1035 71.7811 91.598 73.2756 93.4415 73.2756Z" fill="white"/>
<path d="M85.7381 109.144C88.6288 109.144 90.9722 106.801 90.9722 103.91C90.9722 101.019 88.6288 98.6758 85.7381 98.6758C82.8473 98.6758 80.5039 101.019 80.5039 103.91C80.5039 106.801 82.8473 109.144 85.7381 109.144Z" fill="white"/>
<path d="M113.864 155.086C116.755 155.086 119.098 152.743 119.098 149.852C119.098 146.962 116.755 144.618 113.864 144.618C110.973 144.618 108.63 146.962 108.63 149.852C108.63 152.743 110.973 155.086 113.864 155.086Z" fill="white"/>
<path d="M130.119 185.859C133.01 185.859 135.353 183.516 135.353 180.625C135.353 177.734 133.01 175.391 130.119 175.391C127.228 175.391 124.885 177.734 124.885 180.625C124.885 183.516 127.228 185.859 130.119 185.859Z" fill="white"/>
<path d="M167.944 141.478C170.835 141.478 173.178 139.135 173.178 136.244C173.178 133.353 170.835 131.01 167.944 131.01C165.053 131.01 162.71 133.353 162.71 136.244C162.71 139.135 165.053 141.478 167.944 141.478Z" fill="white"/>
<path d="M169.96 117.479C172.85 117.479 175.194 115.136 175.194 112.245C175.194 109.354 172.85 107.011 169.96 107.011C167.069 107.011 164.726 109.354 164.726 112.245C164.726 115.136 167.069 117.479 169.96 117.479Z" fill="white"/>
<path d="M186.904 160.34C189.795 160.34 192.138 157.997 192.138 155.106C192.138 152.215 189.795 149.872 186.904 149.872C184.013 149.872 181.67 152.215 181.67 155.106C181.67 157.997 184.013 160.34 186.904 160.34Z" fill="white"/>
<path d="M57.5517 112.225C62.1442 112.225 65.8671 108.502 65.8671 103.909C65.8671 99.3167 62.1442 95.5938 57.5517 95.5938C52.9593 95.5938 49.2363 99.3167 49.2363 103.909C49.2363 108.502 52.9593 112.225 57.5517 112.225Z" fill="white"/>
<path d="M9.14156 65.5927C13.734 65.5927 17.4569 61.8698 17.4569 57.2773C17.4569 52.6848 13.734 48.9619 9.14156 48.9619C4.5491 48.9619 0.826172 52.6848 0.826172 57.2773C0.826172 61.8698 4.5491 65.5927 9.14156 65.5927Z" fill="white"/>
<path d="M133.2 128.877C137.793 128.877 141.516 125.154 141.516 120.561C141.516 115.969 137.793 112.246 133.2 112.246C128.608 112.246 124.885 115.969 124.885 120.561C124.885 125.154 128.608 128.877 133.2 128.877Z" fill="white"/>
<path d="M49.2367 95.5943L18.4639 62.9648" stroke="white" stroke-miterlimit="10" stroke-linecap="round"/>
<path d="M31.4795 11.0771L64.109 41.4352" stroke="white" stroke-miterlimit="10" stroke-linecap="round"/>
<path d="M76.3564 51.9248L82.0054 59.0354" stroke="white" stroke-miterlimit="10" stroke-linecap="round"/>
<path d="M103.396 85.1064V90.3603" stroke="white" stroke-miterlimit="10" stroke-linecap="round"/>
<path d="M68.1396 106.991L76.3563 105.944" stroke="white" stroke-miterlimit="10" stroke-linecap="round"/>
<path d="M93.4404 102.41L96.7587 101.146" stroke="white" stroke-miterlimit="10" stroke-linecap="round"/>
<path d="M109.992 101.777L124.865 113.49" stroke="white" stroke-miterlimit="10" stroke-linecap="round"/>
<path d="M144.281 115.524L162.69 114.003" stroke="white" stroke-miterlimit="10" stroke-linecap="round"/>
<path d="M169.958 120.561L168.99 128.876" stroke="white" stroke-miterlimit="10" stroke-linecap="round"/>
<path d="M170.927 141.497L180.684 150.82" stroke="white" stroke-miterlimit="10" stroke-linecap="round"/>
<path d="M126.88 128.876L115.622 144.618" stroke="white" stroke-miterlimit="10" stroke-linecap="round"/>
<path d="M116.293 156.706L126.88 175.371" stroke="white" stroke-miterlimit="10" stroke-linecap="round"/>
</svg>
