<svg width="86" height="47" viewBox="0 0 86 47" fill="none" xmlns="http://www.w3.org/2000/svg">
<path d="M72.8817 6.75645C64.8883 2.39884 54.275 0 42.9987 0C31.7224 0 21.1117 2.39884 13.1183 6.75645C4.98058 11.1892 0.5 17.1353 0.5 23.5C0.5 29.8647 4.98058 35.8108 13.1183 40.2435C21.1117 44.6012 31.725 47 43.0013 47C54.2776 47 64.8883 44.6012 72.8843 40.2435C81.0221 35.8081 85.5027 29.862 85.5027 23.5C85.5027 17.138 81.0221 11.1892 72.8843 6.75645H72.8817ZM30.8455 2.47128C21.7801 6.2198 15.4789 14.0254 15.2838 23.068H1.98907C2.33928 13.3868 14.3882 5.21626 30.8455 2.47128ZM37.9674 1.99098C36.3874 3.17698 34.9465 4.92915 33.722 7.19382C31.4149 11.4602 30.1237 17.0816 30.0649 23.068H16.7675C17.0108 12.614 26.0628 3.93098 37.97 1.99098H37.9674ZM1.98372 23.6637H15.2811C15.356 32.819 21.6919 40.7426 30.8482 44.5287C14.2358 41.7569 2.11739 33.4603 1.98372 23.6637ZM16.7621 23.6637H30.0595C30.0836 29.7493 31.3802 35.4781 33.722 39.8062C34.9465 42.0709 36.3874 43.8257 37.9674 45.009C25.9586 43.0529 16.8557 34.2384 16.7621 23.6637ZM42.7046 45.2988C36.5505 44.9983 31.586 35.4271 31.5406 23.661H36.2885C40.5285 24.6887 41.6753 25.7056 42.7046 29.6983V45.2988ZM42.7046 17.299C41.7636 20.9455 40.7263 22.1101 37.3204 23.068H31.5432C31.6635 11.4253 36.5959 1.99635 42.7046 1.6985V17.299ZM84.0109 23.068H70.7162C70.5211 14.0254 64.2226 6.2198 55.1545 2.47128C71.6145 5.21626 83.6634 13.3868 84.0109 23.068ZM69.2352 23.068H55.9378C55.879 17.0816 54.5877 11.4602 52.2806 7.19382C51.0562 4.92915 49.6153 3.1743 48.0353 1.99098C59.9425 3.93098 68.9946 12.614 69.2378 23.068H69.2352ZM43.2954 1.6985C49.4041 1.99635 54.3364 11.4253 54.4568 23.068H48.6796C45.2737 22.1101 44.2364 20.9455 43.2954 17.299V1.6985ZM43.2954 29.701C44.3247 25.7083 45.4715 24.6914 49.7115 23.6637H54.4594C54.414 35.4298 49.4495 45.001 43.2954 45.3015V29.701ZM52.2779 39.8035C54.6198 35.4754 55.9164 29.7466 55.9405 23.661H69.2378C69.1443 34.2357 60.0388 43.0502 48.0326 45.0063C49.6126 43.8203 51.0535 42.0682 52.2779 39.8035ZM55.1518 44.5287C64.3081 40.7426 70.644 32.819 70.7189 23.6637H84.0163C83.8826 33.4603 71.7642 41.7569 55.1518 44.5287Z" fill="#D9D9D9"/>
</svg>
