<svg width="183" height="222" viewBox="0 0 183 222" fill="none" xmlns="http://www.w3.org/2000/svg">
<path d="M164.102 63.0767C166.993 63.0767 169.336 60.7333 169.336 57.8425C169.336 54.9518 166.993 52.6084 164.102 52.6084C161.212 52.6084 158.868 54.9518 158.868 57.8425C158.868 60.7333 161.212 63.0767 164.102 63.0767Z" fill="white"/>
<path d="M78.7959 198.395C81.8939 198.395 84.4054 195.883 84.4054 192.785C84.4054 189.687 81.8939 187.176 78.7959 187.176C75.6979 187.176 73.1865 189.687 73.1865 192.785C73.1865 195.883 75.6979 198.395 78.7959 198.395Z" fill="white"/>
<path d="M174.394 17.4902C178.987 17.4902 182.71 13.7672 182.71 9.17476C182.71 4.5823 178.987 0.859375 174.394 0.859375C169.802 0.859375 166.079 4.5823 166.079 9.17476C166.079 13.7672 169.802 17.4902 174.394 17.4902Z" fill="white"/>
<path d="M134.141 161.222C139.246 161.222 143.385 157.083 143.385 151.978C143.385 146.873 139.246 142.734 134.141 142.734C129.036 142.734 124.897 146.873 124.897 151.978C124.897 157.083 129.036 161.222 134.141 161.222Z" fill="white"/>
<path d="M8.32321 195.511C12.9157 195.511 16.6386 191.788 16.6386 187.195C16.6386 182.603 12.9157 178.88 8.32321 178.88C3.73075 178.88 0.0078125 182.603 0.0078125 187.195C0.0078125 191.788 3.73075 195.511 8.32321 195.511Z" fill="white"/>
<path d="M145.319 84.132C147.163 84.132 148.657 82.6376 148.657 80.7941C148.657 78.9505 147.163 77.4561 145.319 77.4561C143.476 77.4561 141.981 78.9505 141.981 80.7941C141.981 82.6376 143.476 84.132 145.319 84.132Z" fill="white"/>
<path d="M134.061 115.22C135.904 115.22 137.399 113.725 137.399 111.882C137.399 110.038 135.904 108.544 134.061 108.544C132.217 108.544 130.723 110.038 130.723 111.882C130.723 113.725 132.217 115.22 134.061 115.22Z" fill="white"/>
<path d="M90.3507 84.132C92.1942 84.132 93.6887 82.6376 93.6887 80.7941C93.6887 78.9505 92.1942 77.4561 90.3507 77.4561C88.5072 77.4561 87.0127 78.9505 87.0127 80.7941C87.0127 82.6376 88.5072 84.132 90.3507 84.132Z" fill="white"/>
<path d="M73.2072 52.6086C75.0507 52.6086 76.5452 51.1142 76.5452 49.2706C76.5452 47.4271 75.0507 45.9326 73.2072 45.9326C71.3636 45.9326 69.8691 47.4271 69.8691 49.2706C69.8691 51.1142 71.3636 52.6086 73.2072 52.6086Z" fill="white"/>
<path d="M76.5441 126.914C78.3876 126.914 79.8821 125.42 79.8821 123.576C79.8821 121.733 78.3876 120.238 76.5441 120.238C74.7005 120.238 73.2061 121.733 73.2061 123.576C73.2061 125.42 74.7005 126.914 76.5441 126.914Z" fill="white"/>
<path d="M45.9503 130.232C47.7938 130.232 49.2883 128.737 49.2883 126.894C49.2883 125.05 47.7938 123.556 45.9503 123.556C44.1068 123.556 42.6123 125.05 42.6123 126.894C42.6123 128.737 44.1068 130.232 45.9503 130.232Z" fill="white"/>
<path d="M34.8497 148.936C36.6933 148.936 38.1877 147.441 38.1877 145.598C38.1877 143.754 36.6933 142.26 34.8497 142.26C33.0062 142.26 31.5117 143.754 31.5117 145.598C31.5117 147.441 33.0062 148.936 34.8497 148.936Z" fill="white"/>
<path d="M101.945 203.649C103.789 203.649 105.283 202.154 105.283 200.311C105.283 198.467 103.789 196.973 101.945 196.973C100.102 196.973 98.6074 198.467 98.6074 200.311C98.6074 202.154 100.102 203.649 101.945 203.649Z" fill="white"/>
<path d="M67.9933 221.957C69.8368 221.957 71.3313 220.463 71.3313 218.619C71.3313 216.776 69.8368 215.281 67.9933 215.281C66.1498 215.281 64.6553 216.776 64.6553 218.619C64.6553 220.463 66.1498 221.957 67.9933 221.957Z" fill="white"/>
<path d="M173.15 18.9326L166.079 49.2709" stroke="white" stroke-miterlimit="10" stroke-linecap="round"/>
<path d="M160.864 63.8076L148.657 77.4559" stroke="white" stroke-miterlimit="10" stroke-linecap="round"/>
<path d="M143.384 85.8291L135.483 106.845" stroke="white" stroke-miterlimit="10" stroke-linecap="round"/>
<path d="M134.141 116.761L134.062 139.791" stroke="white" stroke-miterlimit="10" stroke-linecap="round"/>
<path d="M96.6514 80.793H139.433" stroke="white" stroke-miterlimit="10" stroke-linecap="round"/>
<path d="M75.3008 53.5557L87.0332 75.5786" stroke="white" stroke-miterlimit="10" stroke-linecap="round"/>
<path d="M88.7512 86.3447L78.8359 116.94" stroke="white" stroke-miterlimit="10" stroke-linecap="round"/>
<path d="M81.3652 126.184L123.732 145.599" stroke="white" stroke-miterlimit="10" stroke-linecap="round"/>
<path d="M51.2637 125.511L71.3312 124.997" stroke="white" stroke-miterlimit="10" stroke-linecap="round"/>
<path d="M44.0339 131.555L38.1875 142.26" stroke="white" stroke-miterlimit="10" stroke-linecap="round"/>
<path d="M31.5123 150.557L14.4668 178.88" stroke="white" stroke-miterlimit="10" stroke-linecap="round"/>
<path d="M128.432 162.645L105.283 196.973" stroke="white" stroke-miterlimit="10" stroke-linecap="round"/>
<path d="M85.2363 195.51L95.9812 198.393" stroke="white" stroke-miterlimit="10" stroke-linecap="round"/>
<path d="M75.8146 199.125L70.1064 212.418" stroke="white" stroke-miterlimit="10" stroke-linecap="round"/>
</svg>
