<svg width="65" height="65" viewBox="0 0 65 65" fill="none" xmlns="http://www.w3.org/2000/svg">
<path d="M63.6028 64.9927C62.4871 64.7723 61.346 64.6333 60.2574 64.3162C56.2032 63.1346 53.263 60.5034 50.9925 57.0364C50.6585 56.5261 50.3482 55.9988 49.9802 55.4021C45.5428 59.3878 40.612 62.5497 35.0961 64.9486C34.4196 63.399 33.7566 61.8851 33.0733 60.3203C33.6701 60.0389 34.2212 59.7846 34.7689 59.5218C39.4166 57.2924 43.6285 54.4306 47.369 50.8755C47.7115 50.55 47.7726 50.2804 47.6216 49.8345C46.1312 45.4334 45.3665 40.8763 44.6831 36.2955C43.4216 27.8238 43.6844 19.2979 43.6793 10.7804C43.6793 9.15457 43.1978 7.73047 42.0007 6.61832C40.3271 5.06368 38.3636 4.65341 36.2475 5.50278C34.1127 6.35893 32.9851 8.03394 32.7732 10.3176C32.7392 10.6736 32.7562 11.0364 32.7562 11.3958C32.7579 24.0635 32.7613 36.7312 32.7647 49.3988C32.7647 49.6684 32.7647 49.9363 32.7647 50.2363H27.688C27.688 49.9617 27.688 49.6955 27.688 49.4293C27.6846 36.5498 27.6846 23.6702 27.6761 10.7906C27.6761 7.92374 25.8839 5.69096 23.2184 5.19761C19.9899 4.59916 16.9768 6.96248 16.7835 10.2447C16.7649 10.5617 16.7666 10.8787 16.7666 11.1958C16.7666 23.9482 16.7666 36.7006 16.7666 49.4531V50.2346H11.6899C11.6899 49.9837 11.6899 49.7192 11.6899 49.4548C11.6899 35.8564 11.6899 22.2579 11.6899 8.65952C11.6899 6.63697 10.3605 5.15354 8.5123 5.0942C6.6556 5.03486 5.12446 6.4793 5.09733 8.35266C5.0736 10.0226 5.09225 11.6925 5.09225 13.415H0.0155774C0.0155774 13.1251 0.0121861 12.8165 0.0155774 12.508C0.0427072 10.755 -0.092942 8.97994 0.135966 7.25238C0.590391 3.82268 2.58952 1.47801 5.87562 0.43198C9.19903 -0.625919 12.1257 0.259054 14.5673 2.73935C14.6403 2.81395 14.7098 2.89363 14.8319 3.02756C17.0395 0.988056 19.6287 -0.0952741 22.6486 0.0318772C25.6736 0.160724 28.178 1.43054 30.3179 3.79725C30.4654 3.58703 30.5739 3.3802 30.7299 3.22083C33.7278 0.138684 38.2144 -0.817494 42.1787 0.776137C46.1295 2.36299 48.7187 6.17753 48.7509 10.4702C48.7628 12.1621 48.7526 13.8524 48.7526 15.6139C49.3851 15.3104 49.9531 15.0035 50.5466 14.7577C56.7763 12.1757 63.886 16.2106 64.8779 22.8835C64.9017 23.048 64.9576 23.2073 65 23.3684V26.2878C64.9627 26.5116 64.922 26.7371 64.8881 26.9608C64.6473 28.5663 64.5015 30.1939 64.1522 31.7756C62.6584 38.5452 59.5215 44.5145 55.1909 49.8905C54.7212 50.4737 53.948 51.0654 53.9175 51.6825C53.8853 52.3538 54.5245 53.0777 54.9264 53.744C57.2137 57.5416 60.3811 59.9168 65 59.9168V64.9927H63.6045H63.6028ZM51.5996 45.8928C51.6793 45.8928 51.7589 45.8928 51.8386 45.8928C52.154 45.4724 52.5016 45.0723 52.778 44.6281C53.8496 42.909 54.9976 41.2289 55.9352 39.4403C58.3685 34.8018 59.8555 29.8819 59.9149 24.5992C59.9505 21.4594 57.485 19.0079 54.3956 19.0571C51.352 19.1046 48.8713 21.751 48.9832 24.8298C49.1477 29.3716 49.4783 33.8999 50.1786 38.3909C50.5703 40.9051 51.1197 43.3939 51.5979 45.8945L51.5996 45.8928Z" fill="white"/>
</svg>
