<svg width="113" height="75" viewBox="0 0 113 75" fill="none" xmlns="http://www.w3.org/2000/svg">
<path d="M112.832 34.8913C112.054 31.8553 109.611 29.6964 106.599 29.3928C103.63 29.1005 100.793 30.7646 99.5109 33.5532C99.4342 33.7219 99.3904 33.7669 99.3904 33.7669C99.3904 33.7669 99.3356 33.7781 99.1823 33.7444C92.5985 32.4625 86.0147 31.2144 79.42 29.9663C79.2776 29.9438 79.2228 29.9213 79.2228 29.9213C79.2228 29.91 79.2009 29.8538 79.1899 29.7414C79.0366 27.0315 77.7658 24.94 75.5201 23.6807C74.9066 23.3433 74.2603 23.1297 73.5811 22.916C73.3949 22.8598 73.2087 22.7924 73.0115 22.7361L72.8362 20.1724C72.7157 18.3508 72.5952 16.5405 72.4418 14.7301C72.4199 14.449 72.4199 14.4378 72.7047 14.3028C75.6406 12.9085 77.3167 9.53523 76.6703 6.28561C76.0131 2.94603 73.2744 0.517241 69.9989 0.371064C66.7235 0.224888 63.7876 2.37256 62.8674 5.5997C62.7907 5.88081 62.7688 5.89205 62.495 5.9033C56.7218 6.17316 50.9487 6.45427 45.1646 6.73538L34.3742 7.25262C33.8703 5.13868 32.8077 3.58696 31.1097 2.52998C30.069 1.87781 28.9407 1.51799 27.7357 1.47301L30.1238 0L25.1285 1.81034H24.8108L24.767 1.94528C24.1535 2.19265 23.5838 2.51874 23.069 2.92354L22.9594 3.04723C22.9594 3.04723 22.8608 3.15967 22.7732 3.23838C21.1738 4.66642 20.2536 6.70165 20.2646 8.82684C20.2755 10.9408 21.1957 12.9423 22.7951 14.3366C22.8937 14.4265 22.9266 14.4603 22.9375 14.4715C22.9375 14.4715 22.9375 14.5165 22.8608 14.6514C18.2818 23.8493 13.7137 33.0585 9.14555 42.2789C9.06887 42.4363 9.02505 42.4813 9.02505 42.4813C9.02505 42.4813 8.95932 42.4813 8.81691 42.4588C5.70577 41.6942 2.56177 43.0772 0.984297 45.8883C-0.636999 48.7781 -0.231675 52.2076 2.02499 54.6252C4.23784 56.9978 7.53521 57.56 10.4163 56.0645C10.4382 56.0532 10.4711 56.042 10.493 56.0195L11.4351 57.4588C12.5086 59.1005 13.5822 60.7309 14.6667 62.3501C14.7872 62.5187 14.7872 62.5862 14.7872 62.5862C14.7872 62.5862 14.7653 62.6537 14.6119 62.8336C12.3224 65.4535 12.191 69.3778 14.2833 72.1664C15.6636 73.9993 17.7779 75 19.925 75C20.9766 75 22.0502 74.7639 23.0471 74.2579C26.0815 72.7286 27.659 69.1754 26.8045 65.8021C26.7607 65.6222 26.695 65.4423 26.6183 65.2511C26.5526 65.0825 26.443 64.7901 26.443 64.7226C26.4978 64.5877 26.8155 64.4078 27.0346 64.2616C27.1879 64.1717 27.3413 64.0817 27.4728 63.9805L35.7764 57.9873C46.1286 50.521 56.4699 43.066 66.8111 35.5885C67.1288 35.3636 67.1288 35.3636 67.3808 35.5997C69.0678 37.1514 71.423 37.7474 73.6907 37.1964C75.9254 36.6567 77.7549 35.0712 78.5765 32.9573C78.5984 32.8898 78.6203 32.8448 78.6312 32.8336C78.6531 32.8336 78.697 32.8336 78.7736 32.8561C80.9098 33.2721 83.0569 33.6769 85.1931 34.0817L88.1509 34.6439C91.6126 35.3073 95.0742 35.9708 98.5359 36.6342L98.6893 36.6567C98.6893 36.6567 98.7331 36.6567 98.755 36.6567C98.8317 37.3876 98.9522 38.1184 99.0727 38.8943L99.1713 39.4903L94.0116 42.4475C83.7361 48.3396 73.4716 54.2316 63.207 60.1349C63.1522 60.1687 63.1194 60.1799 63.0975 60.1912C63.0756 60.1687 63.0427 60.1349 63.0098 60.0787C61.5529 58.2121 59.2962 57.2114 56.9628 57.3913C54.6295 57.5712 52.5262 58.9318 51.354 61.012C49.7546 63.8343 50.1709 67.4438 52.3619 69.7714C54.5747 72.1102 58.0583 72.6837 60.8408 71.1544C63.6562 69.6139 65.135 66.3193 64.4449 63.1597C64.3792 62.8336 64.3682 62.8223 64.6859 62.6424C67.1836 61.2369 69.6812 59.7976 72.168 58.3696L79.2666 54.2879C86.3872 50.1949 93.5077 46.1132 100.617 42.009C100.858 41.8741 100.858 41.8741 101.088 42.0877C103.542 44.3928 107.168 44.6514 109.885 42.7174C112.361 40.9633 113.522 37.8148 112.777 34.8688L112.832 34.8913ZM109.677 38.7144C109.162 39.7376 108.286 40.491 107.201 40.8508C106.106 41.1994 104.955 41.0982 103.937 40.5472C101.877 39.434 101.077 36.8141 102.151 34.7114C102.688 33.6544 103.586 32.8898 104.682 32.53C105.755 32.1814 106.883 32.2826 107.869 32.8111C109.94 33.9243 110.739 36.5667 109.677 38.7144ZM65.9019 5.72339C66.4167 4.67766 67.3041 3.9018 68.3886 3.54198C68.8268 3.3958 69.265 3.32834 69.7031 3.32834C70.3714 3.32834 71.0396 3.497 71.664 3.82309C72.65 4.34033 73.3839 5.23988 73.7345 6.35307C74.085 7.47751 73.9864 8.66941 73.4606 9.71514C72.398 11.8178 69.8456 12.6612 67.7751 11.593C66.7673 11.0757 66.0114 10.1762 65.6609 9.06297C65.3103 7.94977 65.387 6.76912 65.9019 5.73463V5.72339ZM65.5184 32.9573L65.1022 33.2609C64.1053 33.9805 63.1084 34.7114 62.1006 35.431L53.1615 41.8741C43.8172 48.6207 34.4619 55.3561 25.1175 62.1139C24.8984 62.2714 24.8436 62.2826 24.8327 62.2826C24.8327 62.2826 24.767 62.2826 24.5917 62.1252C23.2333 60.9333 21.7106 60.3373 20.0783 60.3373C19.202 60.3373 18.2927 60.506 17.3725 60.8658C17.2849 60.8996 17.2411 60.9108 17.2301 60.922C17.2192 60.9108 17.1863 60.8658 17.1425 60.7984C15.5541 58.3358 14.2066 56.3006 12.903 54.3778C12.7277 54.1192 12.7387 54.0967 12.903 53.8718C15.1597 50.7684 14.6777 46.518 11.7966 43.988C11.6761 43.8868 11.6542 43.8306 11.6432 43.8306C11.6432 43.8306 11.6432 43.7631 11.7199 43.6169C16.299 34.419 20.8671 25.2099 25.4242 16.0007C25.5009 15.8546 25.5338 15.8321 25.5447 15.8321C25.5886 15.8321 25.6652 15.8321 25.7638 15.8658C27.648 16.3268 29.5651 16.012 31.1755 14.9888C32.7858 13.9543 33.9141 12.3126 34.3523 10.3448C34.3742 10.2661 34.3961 10.1762 34.418 10.1987C41.7467 9.86132 49.0645 9.51274 56.3932 9.15292L62.6374 8.86057C63.4918 12.6499 65.8361 14.7189 69.6046 15.0225L70.1413 22.9835C68.0819 23.7031 66.4934 25.1312 65.6499 27.0202C64.8283 28.8643 64.7845 31.0007 65.5294 32.9573H65.5184ZM31.2083 10.7384C30.6935 11.7729 29.8171 12.5487 28.7435 12.9085C27.659 13.2684 26.4978 13.1784 25.49 12.6387C24.4821 12.1102 23.7372 11.2106 23.3867 10.0975C23.0361 8.98426 23.1347 7.8036 23.6605 6.75787C24.7341 4.63268 27.2756 3.77811 29.346 4.85757C31.4384 5.94828 32.2819 8.57946 31.2193 10.7271L31.2083 10.7384ZM16.1785 65.7009C16.9343 64.1604 18.4132 63.2834 19.9578 63.2834C20.6042 63.2834 21.2615 63.4408 21.8968 63.7556C22.8937 64.2729 23.6386 65.1499 23.9892 66.2519C24.3507 67.3763 24.263 68.5682 23.7372 69.6364C22.6965 71.7616 20.155 72.6274 18.0736 71.5592C17.0548 71.042 16.299 70.1312 15.9375 69.018C15.576 67.9048 15.6636 66.7354 16.1785 65.7009ZM5.88105 45.3823C6.31924 45.2361 6.76838 45.1574 7.21752 45.1574C7.86385 45.1574 8.51018 45.3148 9.10173 45.6184C11.1831 46.7092 12.0266 49.3403 10.975 51.488C9.92333 53.6357 7.35993 54.5015 5.26759 53.422C4.25975 52.9048 3.50388 52.0052 3.15333 50.9033C2.79182 49.7901 2.87946 48.6095 3.39433 47.5637C3.9092 46.5292 4.78558 45.7534 5.87009 45.3823H5.88105ZM75.8597 32.1252C74.7861 34.2054 72.1789 35.0487 70.1632 33.958C68.0819 32.8336 67.2712 30.1912 68.3448 28.066C69.1006 26.5705 70.5905 25.7159 72.1241 25.7159C72.7814 25.7159 73.4606 25.8733 74.085 26.2106C75.0819 26.7391 75.8159 27.6499 76.1555 28.7744C76.4951 29.8988 76.3855 31.0907 75.8597 32.1139V32.1252ZM53.534 66.0832C53.1835 64.97 53.2711 63.7781 53.786 62.7436C54.3008 61.7092 55.1772 60.9333 56.2617 60.5735C56.689 60.4273 57.1271 60.3598 57.5763 60.3598C58.2445 60.3598 58.9018 60.5172 59.5043 60.8433C61.5638 61.934 62.3854 64.5427 61.3447 66.6679C60.8298 67.7136 59.9535 68.4895 58.858 68.8606C57.7844 69.2204 56.6342 69.1417 55.6264 68.6132C54.6185 68.0847 53.8736 67.1964 53.5231 66.0832H53.534Z" fill="white"/>
</svg>
