<svg width="105" height="104" viewBox="0 0 105 104" fill="none" xmlns="http://www.w3.org/2000/svg">
<path fill-rule="evenodd" clip-rule="evenodd" d="M49.9231 103.898C50.9881 103.969 52.0429 104 53.0977 104C63.7276 104 73.8249 100.569 83.1542 93.7798C83.6355 93.4316 83.7482 93.4213 84.1476 93.6978C85.3765 94.5581 86.8204 94.8243 88.4282 94.4966C90.2101 94.1279 91.7564 92.8171 92.463 91.0762C93.1696 89.3455 92.9546 87.4305 91.8691 85.6486L92.1353 85.3209C104.148 70.2056 107.322 53.5337 101.567 35.7763C94.0606 12.6323 72.5141 -1.68424 47.9364 0.159087C36.0264 1.05003 25.5194 5.69932 16.7227 13.9738C-0.205247 29.8879 -4.73164 53.4825 5.2121 74.0664C14.1215 92.5509 29.1651 102.577 49.9231 103.898ZM42.2118 4.43971C45.5708 3.74334 48.9502 3.39515 52.2989 3.39515C61.9662 3.39515 71.3979 6.28304 79.57 11.8745C90.5583 19.3912 97.8189 30.7686 100.021 43.9177C102.407 58.1625 98.8942 71.2911 89.5956 82.9348C89.1962 83.4264 88.9607 83.5595 88.3565 83.4264C86.5337 83.0065 84.6186 83.539 83.2566 84.8499C81.8946 86.1504 81.2904 88.004 81.6181 89.8268C81.7308 90.4515 81.5669 90.6359 81.0651 91.0045C72.6882 97.0978 63.2053 100.385 53.6405 100.518H53.5893C28.6838 100.518 8.43792 83.8872 4.34163 60.0468C-0.0209125 34.6498 16.9684 9.70344 42.2118 4.43971ZM87.1481 86.8161H87.2095V86.8263C87.7011 86.8263 88.2336 87.0516 88.6535 87.451C89.1041 87.8709 89.3601 88.4034 89.3601 88.9257C89.3703 90.0726 88.377 91.0967 87.2198 91.1172C86.1445 91.1274 85.1102 90.1545 85.0692 89.069C85.0283 87.9118 86.0011 86.857 87.1481 86.8161ZM29.2369 87.3282C36.1391 91.8136 44.0552 94.128 52.1556 94.128C55.2176 94.128 58.3103 93.8003 61.3825 93.1347C72.9033 90.6359 82.9187 83.1909 88.8584 72.7249C94.7673 62.3101 96.0166 49.97 92.289 38.8793C87.7319 25.3411 77.3888 15.3461 63.9017 11.4649C50.3942 7.57344 36.2825 10.533 25.1918 19.596C24.7515 19.9545 24.4954 20.0159 24.0244 19.8828C21.9353 19.2786 20.0202 19.8316 18.4739 21.4803C16.9071 23.1496 16.4974 25.1465 17.2962 27.2561C17.4908 27.7784 17.4601 28.0549 17.1221 28.5567C12.565 35.3668 10.1072 43.1907 9.81024 51.8134V51.8543V51.8953C9.89541 52.5612 9.96303 53.233 10.0308 53.9062C10.0526 54.1233 10.0745 54.3406 10.097 54.5579C10.2813 56.4729 10.4759 58.4391 10.8753 60.3541C13.2102 71.5779 19.7335 81.1633 29.2369 87.3282ZM27.3526 81.5934C10.3735 67.1744 10.353 44.3684 20.1329 30.4512L20.1226 30.441C22.816 31.4343 25.0894 31.0145 26.7177 29.2223C28.5405 27.2049 28.7965 24.8291 27.455 22.3303C39.9077 11.424 62.1403 8.81257 78.1363 23.3032C93.9992 37.6709 95.2998 61.542 81.1061 77.6405C67.3119 93.278 43.2052 95.0497 27.3526 81.5934ZM22.5804 23.1905H22.6111C23.1334 23.1905 23.6659 23.4158 24.0858 23.8255C24.5262 24.2453 24.7822 24.7779 24.7822 25.3001C24.7924 26.4471 23.8093 27.4712 22.6623 27.5019C22.1093 27.5224 21.5666 27.2868 21.1467 26.8874C20.7268 26.4778 20.4708 25.9351 20.4708 25.3923C20.4503 24.2556 21.4335 23.2213 22.5804 23.1905ZM52.1965 73.5133H52.2272L52.217 73.503H52.2477C52.6266 73.4621 53.0158 73.4211 53.4049 73.3904C54.2344 73.3187 55.0946 73.2368 55.9446 73.0832C65.6938 71.3013 72.9647 63.2111 73.6201 53.4005C74.2857 43.5079 68.0696 34.4859 58.5048 31.4649C57.9518 31.2805 57.747 31.0757 57.5831 30.533C56.8868 28.1571 54.726 26.5493 52.2067 26.5493H52.1965C49.7183 26.5493 47.5267 28.1366 46.8508 30.3998C46.6665 31.045 46.4003 31.301 45.6732 31.5263C35.4836 34.7419 29.3187 44.829 31.0187 55.5101C32.6367 65.6893 41.7407 73.4313 52.1965 73.5133ZM34.306 53.7896C33.2409 45.5458 39.0474 36.9436 47.0454 34.8033V34.7931C48.2231 36.7593 50.1279 37.9268 52.1863 37.937C54.2446 37.9677 56.1392 36.8208 57.3681 34.8238C64.1781 36.5135 70.7424 43.7537 70.1382 53.2366C69.5648 62.3406 62.0174 69.673 52.9748 69.9392C43.4304 70.2465 35.5553 63.4261 34.306 53.7896ZM50.0562 32.2841C50.0767 31.1064 51.0598 30.1028 52.2067 30.1028V30.0926C52.7597 30.0926 53.323 30.3384 53.7429 30.7582C54.1525 31.1679 54.3778 31.7106 54.3778 32.2432C54.3778 33.4208 53.3844 34.4142 52.217 34.4142H52.2067C51.6435 34.4142 51.0803 34.1786 50.6706 33.769C50.2712 33.3594 50.0562 32.8371 50.0562 32.2841ZM52.35 62.5868H52.4319V62.5971C55.1765 62.5971 57.7674 61.532 59.7336 59.5863C61.71 57.6303 62.8058 55.0394 62.816 52.2847C62.8263 49.5094 61.7612 46.8878 59.795 44.9113C57.839 42.9451 55.2481 41.8494 52.4831 41.8494H52.4524C49.6977 41.8494 47.0965 42.9246 45.1303 44.8806C43.1641 46.8468 42.0786 49.448 42.0786 52.213C42.0786 57.8863 46.6869 62.5459 52.35 62.5868ZM47.6188 47.492C48.9194 46.1709 50.6808 45.4131 52.4422 45.4131H52.4524C56.1288 45.4234 59.2523 48.5263 59.283 52.1822C59.2932 53.9846 58.5764 55.7051 57.2758 57.0159C55.9752 58.3369 54.2548 59.064 52.4524 59.064H52.4422C48.7658 59.064 45.714 56.0328 45.6423 52.3051C45.6014 50.554 46.3285 48.8028 47.6188 47.492Z" fill="white"/>
</svg>
