<svg width="157" height="104" viewBox="0 0 157 104" fill="none" xmlns="http://www.w3.org/2000/svg">
<path d="M156.46 48.3826C155.382 44.1727 151.994 41.179 147.817 40.758C143.7 40.3526 139.766 42.6603 137.988 46.5271C137.882 46.761 137.821 46.8234 137.821 46.8234C137.821 46.8234 137.745 46.839 137.533 46.7922C128.403 45.0147 119.274 43.284 110.129 41.5532C109.932 41.522 109.856 41.4909 109.856 41.4909C109.856 41.4753 109.825 41.3973 109.81 41.2414C109.597 37.4837 107.835 34.5835 104.721 32.8372C103.871 32.3694 102.974 32.0732 102.032 31.7769C101.774 31.6989 101.516 31.6054 101.243 31.5274L101 27.9724C100.832 25.4465 100.665 22.9361 100.453 20.4258C100.422 20.036 100.422 20.0204 100.817 19.8333C104.888 17.8998 107.212 13.2222 106.316 8.71604C105.405 4.08516 101.607 0.717241 97.0652 0.514543C92.5232 0.311844 88.4521 3.28995 87.1761 7.76492C87.0698 8.15472 87.0394 8.17032 86.6597 8.18591C78.6543 8.56012 70.6489 8.94993 62.6283 9.33973L47.6656 10.057C46.9668 7.12564 45.4934 4.97391 43.1388 3.50825C41.6957 2.6039 40.1311 2.10495 38.4601 2.04258L41.7717 0L34.8448 2.51034H34.4043L34.3435 2.69745C33.4928 3.04048 32.7029 3.49265 31.989 4.05397L31.8371 4.22549C31.8371 4.22549 31.7004 4.38141 31.5788 4.49055C29.361 6.47076 28.085 9.29295 28.1002 12.2399C28.1154 15.1712 29.3914 17.9466 31.6092 19.8801C31.7459 20.0048 31.7915 20.0516 31.8067 20.0672C31.8067 20.0672 31.8067 20.1295 31.7004 20.3166C25.3507 33.0711 19.0163 45.8411 12.6818 58.6267C12.5755 58.845 12.5147 58.9074 12.5147 58.9074C12.5147 58.9074 12.4236 58.9074 12.2261 58.8762C7.91201 57.8159 3.55233 59.7337 1.36489 63.6318C-0.883306 67.639 -0.321256 72.3946 2.80799 75.7469C5.87648 79.0369 10.4488 79.8165 14.4439 77.7427C14.4743 77.7271 14.5199 77.7116 14.5503 77.6804L15.8566 79.6762C17.3453 81.9526 18.834 84.2135 20.3379 86.4588C20.5049 86.6927 20.5049 86.7862 20.5049 86.7862C20.5049 86.7862 20.4746 86.8798 20.2619 87.1292C17.0871 90.7622 16.9048 96.2039 19.8062 100.071C21.7202 102.612 24.652 104 27.6293 104C29.0876 104 30.5763 103.673 31.9586 102.971C36.1664 100.85 38.3538 95.9232 37.1689 91.2456C37.1082 90.9961 37.017 90.7466 36.9107 90.4816C36.8196 90.2477 36.6677 89.8423 36.6677 89.7487C36.7436 89.5616 37.1841 89.3121 37.4879 89.1095C37.7006 88.9847 37.9133 88.86 38.0956 88.7196L49.61 80.409C63.965 70.0558 78.3049 59.7181 92.6447 49.3493C93.0853 49.0375 93.0852 49.0375 93.4346 49.3649C95.774 51.5166 99.0399 52.343 102.184 51.579C105.283 50.8306 107.82 48.6321 108.959 45.7007C108.99 45.6072 109.02 45.5448 109.035 45.5292C109.066 45.5292 109.126 45.5292 109.233 45.5604C112.195 46.1373 115.172 46.6987 118.134 47.26L122.236 48.0396C127.036 48.9595 131.836 49.8795 136.636 50.7994L136.849 50.8306C136.849 50.8306 136.91 50.8306 136.94 50.8306C137.047 51.8441 137.214 52.8576 137.381 53.9334L137.518 54.7598L130.363 58.8606C116.114 67.0309 101.881 75.2012 87.647 83.3871C87.5711 83.4339 87.5255 83.4495 87.4951 83.4651C87.4648 83.4339 87.4192 83.3871 87.3736 83.3092C85.3533 80.7208 82.224 79.3331 78.9884 79.5826C75.7529 79.8321 72.8363 81.7187 71.2109 84.6033C68.9931 88.5169 69.5703 93.522 72.6084 96.7496C75.6769 99.9928 80.5075 100.788 84.3659 98.6675C88.2699 96.5313 90.3206 91.9628 89.3636 87.5814C89.2724 87.1292 89.2572 87.1136 89.6978 86.8642C93.1612 84.9151 96.6247 82.9193 100.073 80.9391L109.916 75.2792C119.79 69.6036 129.664 63.9436 139.523 58.2525C139.857 58.0654 139.857 58.0654 140.176 58.3616C143.579 61.558 148.607 61.9166 152.374 59.2348C155.807 56.8024 157.417 52.4366 156.384 48.3514L156.46 48.3826ZM152.085 53.684C151.371 55.1029 150.156 56.1475 148.652 56.6465C147.133 57.1298 145.538 56.9895 144.125 56.2255C141.27 54.6819 140.161 51.0489 141.649 48.1331C142.394 46.6675 143.639 45.6072 145.158 45.1082C146.647 44.6249 148.212 44.7652 149.579 45.4981C152.45 47.0417 153.559 50.7058 152.085 53.684ZM91.3839 7.93643C92.0979 6.48636 93.3283 5.41049 94.8322 4.91154C95.4398 4.70885 96.0474 4.61529 96.655 4.61529C97.5816 4.61529 98.5083 4.84918 99.3741 5.30135C100.741 6.01859 101.759 7.26597 102.245 8.8096C102.731 10.3688 102.595 12.0216 101.865 13.4717C100.392 16.3874 96.8525 17.5568 93.9815 16.0756C92.584 15.3583 91.5358 14.1109 91.0497 12.5673C90.5636 11.0237 90.67 9.38651 91.3839 7.95202V7.93643ZM90.8522 45.7007L90.275 46.1217C88.8927 47.1196 87.5103 48.1331 86.1128 49.131L73.7173 58.0654C60.7598 67.4207 47.7871 76.7604 34.8296 86.1313C34.5258 86.3496 34.4498 86.3652 34.4347 86.3652C34.4347 86.3652 34.3435 86.3652 34.1005 86.1469C32.2168 84.4942 30.1054 83.6678 27.842 83.6678C26.6267 83.6678 25.3659 83.9017 24.0899 84.4006C23.9684 84.4474 23.9076 84.463 23.8924 84.4786C23.8772 84.463 23.8317 84.4006 23.7709 84.3071C21.5683 80.8924 19.6998 78.0702 17.8922 75.4039C17.6491 75.0453 17.6643 75.0141 17.8922 74.7022C21.0214 70.3988 20.353 64.505 16.3579 60.9967C16.1908 60.8564 16.1605 60.7784 16.1453 60.7784C16.1453 60.7784 16.1453 60.6849 16.2516 60.4822C22.6012 47.7277 28.9357 34.9577 35.2549 22.1877C35.3613 21.985 35.4068 21.9538 35.422 21.9538C35.4828 21.9538 35.5891 21.9538 35.7258 22.0006C38.3386 22.6399 40.997 22.2033 43.23 20.7844C45.463 19.3499 47.0276 17.0735 47.6352 14.3448C47.6656 14.2357 47.696 14.1109 47.7264 14.1421C57.8888 13.6744 68.0361 13.191 78.1985 12.6921L86.8571 12.2867C88.042 17.5412 91.2928 20.4102 96.5183 20.8312L97.2626 31.8705C94.4068 32.8684 92.2042 34.8486 91.0345 37.4681C89.8952 40.0252 89.8345 42.9877 90.8674 45.7007H90.8522ZM43.2755 14.8906C42.5616 16.325 41.3463 17.4009 39.8577 17.8998C38.3538 18.3988 36.7436 18.2741 35.3461 17.5256C33.9486 16.7928 32.9156 15.5454 32.4295 14.0018C31.9434 12.4582 32.0801 10.821 32.8093 9.37091C34.2979 6.42399 37.8221 5.23898 40.6931 6.73583C43.5945 8.24828 44.7642 11.8969 43.2907 14.875L43.2755 14.8906ZM22.4341 91.1052C23.4823 88.9691 25.533 87.7529 27.6749 87.7529C28.5711 87.7529 29.4825 87.9712 30.3636 88.4078C31.7459 89.125 32.7789 90.3412 33.265 91.8693C33.7663 93.4285 33.6447 95.0813 32.9156 96.5625C31.4725 99.5094 27.9483 100.71 25.0621 99.2288C23.6494 98.5115 22.6012 97.2486 22.1 95.7049C21.5987 94.1613 21.7202 92.5397 22.4341 91.1052ZM8.15505 62.9301C8.76267 62.7274 9.38549 62.6183 10.0083 62.6183C10.9045 62.6183 11.8008 62.8366 12.6211 63.2576C15.5073 64.77 16.6769 68.4186 15.2186 71.3967C13.7604 74.3748 10.2058 75.5754 7.30439 74.0786C5.90686 73.3613 4.85871 72.1139 4.37261 70.5859C3.87133 69.0423 3.99285 67.4051 4.70681 65.955C5.42076 64.5205 6.636 63.4447 8.13986 62.9301H8.15505ZM105.192 44.5469C103.703 47.4315 100.088 48.6009 97.293 47.0885C94.4068 45.5292 93.2827 41.8651 94.7714 38.9181C95.8195 36.8444 97.8855 35.6594 100.012 35.6594C100.924 35.6594 101.865 35.8777 102.731 36.3454C104.114 37.0783 105.131 38.3412 105.602 39.9005C106.073 41.4597 105.921 43.1124 105.192 44.5313V44.5469ZM74.2338 91.6354C73.7477 90.0918 73.8692 88.439 74.5832 87.0045C75.2972 85.57 76.5124 84.4942 78.0163 83.9952C78.6087 83.7925 79.2163 83.699 79.8391 83.699C80.7657 83.699 81.6772 83.9172 82.5126 84.3694C85.3685 85.8819 86.5078 89.4993 85.0647 92.4462C84.3507 93.8963 83.1355 94.9721 81.6164 95.4867C80.1277 95.9856 78.5327 95.8765 77.1352 95.1436C75.7377 94.4108 74.7047 93.179 74.2186 91.6354H74.2338Z" fill="white"/>
</svg>
