<svg width="90" height="94" viewBox="0 0 90 94" fill="none" xmlns="http://www.w3.org/2000/svg">
<path d="M71.2737 80.1712C69.9042 81.3678 68.5562 82.5984 67.1544 83.7725C62.4744 87.6899 57.5571 91.1783 51.7987 93.154C49.9871 93.7749 48.1215 94.1475 46.1913 93.9443C43.0533 93.6169 41.1123 91.6299 40.7456 88.356C40.53 86.369 40.875 84.4498 41.4466 82.5645C41.673 81.8081 42.2769 81.4807 42.9455 81.6614C43.5925 81.842 43.9052 82.4516 43.765 83.2532C43.5493 84.4047 43.269 85.5449 43.1611 86.7077C43.0856 87.5093 43.2474 88.3447 43.3229 89.3043C47.0001 85.703 49.5557 78.8051 48.7578 72.9008C47.949 74.2894 47.2373 75.5086 46.5364 76.7279C46.3423 77.0666 46.1805 77.4165 45.9972 77.7552C45.5658 78.5455 44.8865 78.8164 44.2718 78.4552C43.6356 78.0939 43.4415 77.3262 43.8728 76.5585C45.1022 74.4248 46.3423 72.3024 47.6471 70.2252C48.0676 69.5591 48.197 69.0059 47.9166 68.2382C46.3854 63.9144 44.1424 60.0308 41.3603 56.4859C37.2626 51.2815 32.2375 47.3415 26.382 44.5078C24.6243 43.6611 23.244 43.4353 21.4755 44.8352C18.0572 47.5334 14.2614 49.6671 10.045 50.7283C8.45985 51.1234 6.75606 51.2928 5.12776 51.1573C2.25935 50.9202 0.393804 48.8994 0.0595158 45.8964C-0.069886 44.7449 0.0379489 43.5482 0.135 42.3854C0.210485 41.5387 0.792793 41.1097 1.5045 41.2C2.19465 41.3016 2.6152 41.8887 2.50737 42.7467C2.34562 43.9998 2.24856 45.2417 2.64755 46.4722C3.95236 45.49 5.16011 44.4514 6.48648 43.5934C11.339 40.4775 16.6014 39.4953 22.198 40.5227C22.7803 40.6356 23.2117 40.5227 23.6538 40.1275C24.8076 39.1002 26.0046 38.118 27.3094 37.0117C25.983 36.1875 24.7861 35.4086 23.546 34.7199C23.3519 34.6183 22.9313 34.878 22.6617 35.0473C21.0981 36.0069 19.5992 37.102 17.9817 37.9374C17.0004 38.4454 15.8465 38.7277 14.7574 38.8067C12.9242 38.9422 11.792 37.6777 11.8351 35.7472C11.889 33.7829 12.7409 32.0895 13.6251 30.4186C13.8516 30.0009 14.0888 29.6058 14.2506 28.951C12.9781 29.1994 11.7057 29.4703 10.4332 29.6961C8.48142 30.0461 7.11192 31.0847 6.30316 33.0378C5.72085 34.449 4.94444 35.7585 4.26508 37.1246C3.83374 38.0051 3.22986 38.3099 2.53972 37.9713C1.83879 37.6326 1.67704 36.9665 2.08681 36.0408C4.02784 31.5814 6.63745 27.5624 9.55977 23.7579C12.6331 19.7501 16.0083 16.0472 19.707 12.6604C24.8723 7.94138 30.3396 3.71913 36.8312 1.1903C38.9017 0.388752 41.026 -0.153141 43.269 0.0387797C46.6334 0.321015 48.6391 2.43214 48.9087 5.95444C49.0813 8.20104 48.5852 10.346 47.8843 12.4572C46.5256 16.5326 44.4444 20.213 42.0612 23.7014C41.5652 24.4239 41.4681 25.011 41.7701 25.8351C44.1316 32.2249 47.798 37.6664 52.6506 42.2274C56.1445 45.5126 60.0696 48.0753 64.4046 49.9606C65.5369 50.4574 66.3888 50.4348 67.4456 49.6332C70.8747 47.0254 74.5519 44.8578 78.6173 43.5144C80.4181 42.916 82.2513 42.5435 84.1492 42.7354C87.3842 43.0515 89.3899 45.14 89.6488 48.5269C89.8968 51.6653 88.9694 54.5667 87.794 57.3778C85.8098 62.1306 83.0493 66.3755 79.9328 70.3945C78.8113 71.8508 77.6467 73.2733 76.4929 74.7071L71.2737 80.1712ZM44.5738 2.77082C43.614 2.68051 42.8808 2.49988 42.1583 2.56761C41.1015 2.66922 40.0339 2.84985 39.0095 3.15466C36.3675 3.92234 33.9305 5.19805 31.5797 6.66568C29.0995 8.21233 29.0671 8.20104 28.3123 11.1024C27.978 12.3781 27.8378 13.7103 27.6113 15.0199C28.0642 14.9408 28.2799 14.7715 28.5171 14.6699C30.0808 13.9586 31.5904 13.0329 33.2187 12.6265C36.0009 11.9153 37.737 14.0941 36.8851 16.9616C36.6695 17.6954 36.1087 18.0567 35.4078 17.9099C34.7716 17.7858 34.4157 17.2439 34.4696 16.4762C34.502 16.0359 34.5451 15.6069 34.6098 14.9295C34.2324 14.9973 33.9736 15.0424 33.7148 15.0989C31.7091 15.5392 30.0268 16.6681 28.3877 17.8874C28.2583 17.989 28.1613 18.2825 28.2044 18.4518C28.6142 20.2581 29.369 21.8951 30.5552 23.4756C31.0297 22.787 31.461 22.1999 31.8708 21.5903C32.4316 20.7662 33.1648 20.5291 33.7795 20.9807C34.4157 21.4548 34.5667 22.2902 33.8981 23.0241C32.8952 24.1417 33.0246 25.1013 33.8442 26.2077C34.3834 26.9415 34.8039 27.7769 35.3215 28.6349C36.3891 27.2576 37.3273 26.0045 38.3086 24.7965C38.6752 24.3449 38.7507 23.9159 38.6428 23.3402C38.0498 20.134 38.1468 16.9391 38.8585 13.7554C39.7751 9.65737 41.6299 6.08991 44.5522 2.77082H44.5738ZM87.1039 47.3076C86.2196 48.064 85.5618 48.6736 84.8501 49.2042C79.5446 53.2007 73.6784 54.6232 67.2299 53.4152C66.9819 53.37 66.6368 53.3475 66.475 53.4829C65.1055 54.5893 63.7684 55.7295 62.3342 56.9488C63.2939 57.581 64.1674 58.0664 64.9438 58.6987C65.828 59.4212 66.5721 59.5679 67.4024 58.6309C67.7583 58.2358 68.2651 57.9761 68.718 57.6826C70.4757 56.5537 72.255 55.4473 74.347 55.1763C76.6654 54.8828 78.1104 56.3617 77.7438 58.7664C77.5712 59.9066 77.1507 61.0243 76.7194 62.0968C76.3419 63.0338 75.8028 63.9031 75.3067 64.8627C77.6144 64.9643 79.6632 64.1402 81.7337 63.3838C81.9062 63.3273 82.0356 63.079 82.1435 62.8983C83.114 61.1372 84.1492 59.3986 85.0226 57.581C86.1549 55.2215 87.0931 52.7717 87.244 50.0961C87.298 49.2381 87.1578 48.3575 87.0931 47.3076H87.1039ZM45.1776 91.1219C46.8491 91.7202 48.3803 91.4832 49.89 91.088C53.6427 90.0946 56.964 88.1189 60.199 85.9626C60.3608 85.8497 60.4902 85.6352 60.5549 85.432C60.8892 84.4047 61.2666 83.3774 61.5038 82.3161C61.7411 81.2211 61.8381 80.1034 62.0322 78.7826C61.4176 79.1777 61.0294 79.4373 60.6412 79.6631C59.0452 80.5889 57.4277 81.4807 55.5514 81.5259C53.7397 81.571 52.5751 80.4082 52.6398 78.5229C52.6722 77.6423 52.7908 76.6827 53.1574 75.915C54.1064 73.9507 55.2279 72.0766 56.2631 70.1687C56.4248 69.8639 56.7483 69.4236 56.6513 69.243C55.9503 67.9447 55.1632 66.6916 54.3436 65.3368C53.2868 66.7029 52.3487 67.956 51.3674 69.164C50.9792 69.6381 50.8929 70.0897 51.0007 70.6993C51.8311 75.4635 51.2919 80.0695 49.4263 84.495C48.4019 86.9222 46.9785 89.0672 45.1992 91.1106L45.1776 91.1219ZM4.4484 48.3914C7.39229 49.7348 16.6337 46.3706 19.9335 42.7919C13.9702 42.3741 8.89119 44.2482 4.4484 48.3914ZM46.353 4.8255C46.2668 4.8255 46.1697 4.8255 46.0835 4.8255C42.1906 9.39772 40.4006 14.715 40.7995 21.0371C41.0476 20.7436 41.1985 20.6081 41.2848 20.4501C42.3632 18.4518 43.5062 16.4988 44.4875 14.4554C45.5443 12.2539 46.3638 9.92832 46.5148 7.43336C46.5687 6.57536 46.4177 5.69478 46.3638 4.8255H46.353ZM85.0981 45.4223C84.3756 45.3545 83.6316 45.1513 82.9199 45.2417C81.6582 45.3997 80.3857 45.6255 79.1672 46.0206C75.8998 47.0705 72.9667 48.843 70.1091 50.7622C69.9797 50.8525 69.8718 50.9993 69.6454 51.2363C75.6734 51.6202 80.7632 49.7687 85.0873 45.4223H85.0981ZM18.3052 17.3681L21.3461 20.5517C21.7559 20.1791 22.1333 19.8291 22.5 19.4792C22.8774 19.1292 23.2225 18.7115 23.643 18.4293C24.8939 17.5938 25.7134 16.5891 25.3144 14.8957C25.2282 14.5005 25.3145 14.0603 25.3576 13.6425C25.4654 12.7394 25.6056 11.8475 25.735 10.9444L25.5733 10.7976C23.1685 12.9765 20.753 15.1553 18.3052 17.3681ZM71.3707 76.615C70.411 75.6102 69.5807 74.7748 68.7935 73.9055C68.4268 73.4991 68.168 73.5443 67.8014 73.9055C67.0573 74.628 66.3456 75.407 65.5045 76.0054C64.5124 76.7053 64.2213 77.5294 64.286 78.7826C64.3723 80.205 64.1027 81.6501 63.9733 83.3096C66.4643 81.0517 68.8582 78.8842 71.3707 76.6263V76.615ZM79.3937 67.177C77.4526 67.2448 75.641 67.3012 73.8402 67.3802C73.7 67.3802 73.5059 67.448 73.4196 67.5496C72.3305 68.8817 71.2521 70.2365 70.1414 71.6251L73.1392 74.7635C75.2528 72.2008 77.3232 69.6946 79.3937 67.1883V67.177ZM19.5345 22.4144L16.5043 19.2421C14.3908 21.8161 12.3096 24.3449 10.1636 26.9528C11.7704 26.8173 13.183 26.5464 14.5741 26.6254C15.7064 26.6818 16.4396 26.377 17.0866 25.4174C17.8091 24.3562 18.6934 23.4305 19.5345 22.4144ZM58.3443 67.2335L64.1458 61.1598C62.9057 60.3469 61.6979 59.5454 60.4686 58.7325C59.056 60.2114 57.6865 61.6339 56.3493 63.0677C56.2307 63.1918 56.166 63.5531 56.2523 63.6999C56.9101 64.874 57.6218 66.0142 58.3443 67.2335ZM67.4024 62.0177C68.8043 63.158 70.3247 63.937 72.007 64.366C72.2334 64.4224 72.6648 64.2418 72.7726 64.0273C73.6137 62.4467 74.4117 60.8549 75.1665 59.2293C75.3606 58.8115 75.3067 58.2809 75.3714 57.8068C73.5921 57.5697 69.0092 60.0195 67.4024 62.0177ZM22.2196 31.9766C20.8393 30.8476 19.2973 30.0574 17.5935 29.6284C17.3886 29.5719 17.0004 29.7638 16.8925 29.9558C16.0514 31.5363 15.2427 33.1281 14.4878 34.7538C14.2937 35.1715 14.3369 35.7134 14.2722 36.1988C16.0191 36.4811 20.9471 33.828 22.2304 31.9879L22.2196 31.9766ZM54.9906 78.9858C55.5082 78.9293 55.8856 78.9406 56.2307 78.8503C58.0639 78.3536 59.6491 77.3262 61.1696 76.1747C61.3421 76.0392 61.4499 75.5651 61.3637 75.328C61.0402 74.3345 60.6627 73.3411 60.2314 72.3927C59.951 71.7605 59.5305 71.2073 59.0776 70.4735C57.2659 73.183 55.3141 75.5651 54.9798 78.9858H54.9906ZM58.3011 57.2875C57.2659 56.4972 56.2954 55.7295 55.2818 55.007C55.1524 54.9167 54.7965 55.007 54.6671 55.1312C53.9446 55.8424 53.2437 56.5649 52.5751 57.3326C52.4565 57.4681 52.381 57.8519 52.4673 57.9874C53.1574 59.0373 53.8907 60.0647 54.6348 61.1259L58.3011 57.2875ZM31.3209 36.7181C32.3345 37.4971 33.2835 38.2535 34.2755 38.9647C34.4157 39.0663 34.7716 39.0325 34.901 38.9196C35.645 38.1971 36.3675 37.4407 37.0577 36.673C37.1763 36.5375 37.2518 36.1537 37.1547 36.0295C36.4646 34.9796 35.7313 33.9635 34.9872 32.9023L31.3209 36.7407V36.7181ZM21.2599 24.3111C20.4187 25.3045 19.6531 26.2077 18.963 27.0318C20.8177 28.093 22.6078 29.1091 24.4518 30.159L25.6487 28.9059L21.2599 24.3111ZM66.475 71.6702L62.0754 67.0641L60.9 68.2947C61.9136 70.259 62.8949 72.1557 63.8978 74.0749C64.7065 73.3185 65.5584 72.5282 66.4858 71.6589L66.475 71.6702ZM27.5359 26.9415C28.4704 26.1663 28.643 25.312 28.0535 24.3788C28.0535 24.3788 28.0319 24.3336 28.0103 24.2998C27.277 22.8547 26.533 21.421 25.7674 19.9082C24.9478 20.6871 24.0636 21.5113 23.1685 22.358L27.5466 26.9415H27.5359ZM70.6267 67.0303C68.9229 65.969 67.2622 64.9304 65.5908 63.9257C65.4506 63.8466 65.1594 63.8466 65.0408 63.9482C64.6634 64.2756 64.3291 64.6708 63.9625 65.0433L68.3837 69.672C69.2033 68.7124 69.9689 67.7979 70.6267 67.0303ZM50.6341 59.7147C49.9224 60.9227 49.3077 61.9613 48.7038 63.0112C48.6176 63.158 48.5744 63.4063 48.6391 63.5531C49.0705 64.5917 49.5342 65.6304 50.0302 66.748C51.0223 65.4949 51.9605 64.3208 52.931 63.1241C52.1869 62.029 51.4752 60.9565 50.6341 59.7147ZM63.6713 52.4556C62.6253 51.9589 61.6656 51.4847 60.6951 51.0331C60.5657 50.9767 60.3608 50.9541 60.253 51.0218C59.1854 51.6766 58.1286 52.354 56.9532 53.0991C58.1717 53.991 59.207 54.7474 60.2206 55.5037C61.4068 54.4538 62.5067 53.4829 63.6713 52.4669V52.4556ZM29.4122 38.5132C28.2368 39.5518 27.1261 40.534 25.9615 41.5613C27.0182 42.0693 27.9564 42.5209 28.9054 42.9725C29.024 43.0289 29.1965 43.0967 29.272 43.0402C30.3719 42.3741 31.4718 41.6742 32.6796 40.9178C31.461 40.0147 30.4582 39.2808 29.423 38.5132H29.4122ZM36.7018 30.8815C37.4459 31.9879 38.1684 33.0378 39.0095 34.2909C39.732 33.0265 40.3682 31.9201 41.0044 30.8025C41.0476 30.7235 41.0583 30.5767 41.026 30.4864C40.5731 29.4365 40.1094 28.3865 39.6134 27.2689C38.6213 28.4994 37.6939 29.651 36.7126 30.8815H36.7018ZM46.8814 54.9731C46.3207 55.6957 45.7707 56.373 45.2531 57.073C45.1776 57.1859 45.1237 57.423 45.1776 57.5246C45.8031 58.5406 46.4501 59.5454 47.1402 60.6291C47.8088 59.5567 48.4019 58.5971 49.0058 57.6487C48.3588 56.802 47.7118 55.944 47.0648 55.0973C47.054 55.0747 47.0216 55.0635 46.8814 54.9731ZM57.8051 49.4187C56.7915 48.7075 55.8533 48.0527 54.8936 47.4092C54.7965 47.3415 54.5593 47.3641 54.4622 47.4431C53.7721 47.9963 53.1143 48.5833 52.3379 49.2381C53.179 49.9606 53.9338 50.6041 54.6995 51.2363C54.8181 51.3267 55.0769 51.3831 55.1847 51.3041C56.0366 50.717 56.8777 50.0848 57.7943 49.4187H57.8051ZM31.8061 44.5869C32.8198 45.2868 33.7256 45.9303 34.6422 46.5399C34.7824 46.6303 35.0735 46.6303 35.2029 46.5399C35.8715 46.0093 36.5185 45.4336 37.2733 44.7788C36.346 43.9772 35.5048 43.266 34.6745 42.5435C33.704 43.2321 32.809 43.8756 31.8169 44.5869H31.8061ZM40.5515 36.3795C41.2417 37.26 41.921 38.1293 42.6867 39.1115C43.3229 38.2987 43.8836 37.61 44.412 36.8875C44.4875 36.7859 44.4875 36.5488 44.412 36.4359C43.7974 35.4424 43.1719 34.4603 42.4926 33.4103C41.824 34.4264 41.2309 35.3408 40.5407 36.3907L40.5515 36.3795ZM32.2698 32.0104C32.6688 31.5927 33.0246 31.2541 33.3374 30.8815C33.4344 30.7686 33.4883 30.4977 33.4236 30.3848C32.7443 29.1768 32.0326 27.9801 31.2669 26.6818C30.566 27.4834 29.9514 28.1946 29.3151 28.9284L32.2698 32.0217V32.0104ZM25.4762 32.9023C26.2742 33.4103 27.0398 33.8958 27.8054 34.3925C28.7616 35.0097 29.6135 34.8855 30.3611 34.02C30.3611 34.02 30.3935 33.9184 30.415 33.828L27.5035 30.7799L25.4762 32.9023ZM38.9448 38.4793L36.6587 40.8726C37.392 41.5274 38.0713 42.1484 38.7615 42.7467C39.3006 43.2096 39.5594 42.6112 39.7859 42.329C40.1633 41.8435 41.1554 41.5613 40.7348 40.7485C40.3035 39.913 39.5702 39.247 38.9448 38.4793ZM52.9525 53.1443C52.2085 52.4782 51.5507 51.7557 50.7743 51.2476C50.1165 50.8186 49.8469 51.6766 49.491 52.0379C49.1783 52.354 48.4343 52.6249 48.8548 53.2684C49.3724 54.07 50.041 54.7586 50.6664 55.5376L52.9525 53.1443ZM39.1389 46.5399C38.3948 47.1834 37.737 47.7479 37.0038 48.3801C37.8664 49.1591 38.6752 49.9042 39.484 50.638L41.3711 48.6624C40.6054 47.9398 39.9045 47.2625 39.1389 46.5399ZM48.3049 41.4371C47.5608 40.5565 46.8491 39.7098 46.105 38.8293C45.4796 39.6534 44.9296 40.3646 44.3473 41.121L46.4717 43.345L48.2941 41.4371H48.3049ZM48.2294 45.3433C49.0273 46.0996 49.7498 46.777 50.4831 47.4657C51.2272 46.8222 51.8742 46.2577 52.6182 45.6255C51.7556 44.8465 50.9468 44.1014 50.1273 43.3563L48.2294 45.3433ZM43.5062 55.1763C44.1209 54.3861 44.6708 53.6749 45.2747 52.9072L43.1611 50.6945L41.3495 52.5911C42.0828 53.4604 42.7729 54.2958 43.517 55.1763H43.5062ZM43.118 46.8673L44.6708 45.2417L42.6543 43.1305L41.1015 44.7562L43.118 46.8673ZM48.5097 49.272L46.504 47.1721L44.962 48.7865L46.9677 50.8864L48.5097 49.272Z" fill="white"/>
</svg>
